<svg width="50" height="50" viewBox="0 0 50 50" fill="none" xmlns="http://www.w3.org/2000/svg">
<path fill-rule="evenodd" clip-rule="evenodd" d="M25 0C11.1929 0 0 11.1929 0 25C0 38.8071 11.1929 50 25 50C38.8071 50 50 38.8071 50 25C50 11.1929 38.8071 0 25 0ZM29.2822 25.4799C29.3444 25.3276 29.3759 25.1645 29.375 25C29.3705 24.6825 29.2454 24.3786 29.025 24.15L24.2 19.15C24.0905 19.0174 23.9549 18.9087 23.8016 18.8309C23.6482 18.7531 23.4805 18.7077 23.3088 18.6977C23.1371 18.6877 22.9652 18.7132 22.8039 18.7726C22.6425 18.832 22.4951 18.9241 22.371 19.0431C22.2468 19.1621 22.1485 19.3054 22.0823 19.4641C22.0161 19.6228 21.9833 19.7934 21.986 19.9654C21.9887 20.1373 22.0269 20.3069 22.0981 20.4634C22.1694 20.6199 22.2721 20.76 22.4 20.875L26.375 25L22.2375 29.1125C22.1209 29.2291 22.0285 29.3674 21.9654 29.5197C21.9023 29.672 21.8699 29.8352 21.8699 30C21.8699 30.1648 21.9023 30.328 21.9654 30.4803C22.0285 30.6326 22.1209 30.771 22.2375 30.8875C22.354 31.0041 22.4924 31.0965 22.6447 31.1596C22.797 31.2227 22.9602 31.2551 23.125 31.2551C23.2898 31.2551 23.453 31.2227 23.6053 31.1596C23.7576 31.0965 23.8959 31.0041 24.0125 30.8875L29.0125 25.8875C29.1283 25.7707 29.22 25.6322 29.2822 25.4799Z" fill="#E4CBA0"/>
</svg>
