<svg width="100" height="100" viewBox="0 0 100 100" fill="none" xmlns="http://www.w3.org/2000/svg">
<circle cx="50" cy="50" r="49" stroke="#858A73" stroke-width="2"/>
<path d="M72.0158 58.0199L60.1941 65.0239L55.6911 62.1784H61.3525C62.219 62.1784 63.0501 61.8341 63.6628 61.2214C64.2756 60.6086 64.6198 59.7776 64.6198 58.911C64.6198 58.0445 64.2756 57.2134 63.6628 56.6007C63.0501 55.9879 62.219 55.6437 61.3525 55.6437H51.6277C50.5093 55.6372 49.3993 55.8386 48.3545 56.2378L40.7921 59.6714V58.911C40.7921 58.6747 40.6982 58.4481 40.5311 58.2809C40.364 58.1138 40.1373 58.0199 39.901 58.0199H33.3663C33.13 58.0199 32.9034 58.1138 32.7362 58.2809C32.5691 58.4481 32.4753 58.6747 32.4753 58.911V73.7625C32.4753 73.9989 32.5691 74.2255 32.7362 74.3926C32.9034 74.5597 33.13 74.6536 33.3663 74.6536H39.901C40.1373 74.6536 40.364 74.5597 40.5311 74.3926C40.6982 74.2255 40.7921 73.9989 40.7921 73.7625V72.8714H59.2614C60.4303 72.8734 61.5699 72.5053 62.5168 71.82L75.1465 62.7724C75.6745 62.3173 76.0188 61.6855 76.115 60.9951C76.2112 60.3046 76.0527 59.6028 75.6692 59.0207C75.2858 58.4386 74.7035 58.0159 74.0311 57.8318C73.3588 57.6476 72.6424 57.7145 72.0158 58.0199ZM39.0099 72.8714H34.2574V59.8021H39.0099V72.8714ZM74.1129 61.3526L61.4772 70.3764C60.8322 70.8416 60.0567 71.0912 59.2614 71.0893H40.7921V61.6259L49.0376 57.9011C49.8645 57.585 50.7425 57.4239 51.6277 57.4259H61.3525C61.7464 57.4259 62.1241 57.5824 62.4026 57.8609C62.6812 58.1394 62.8376 58.5172 62.8376 58.911C62.8376 59.3049 62.6812 59.6827 62.4026 59.9612C62.1241 60.2397 61.7464 60.3962 61.3525 60.3962H52.6139C52.4205 60.396 52.2323 60.4586 52.0776 60.5748C51.923 60.6909 51.8103 60.8542 51.7567 61.04C51.703 61.2258 51.7113 61.424 51.7802 61.6047C51.8491 61.7854 51.9749 61.9388 52.1386 62.0417L59.701 66.7942C59.8413 66.8804 60.0027 66.926 60.1673 66.926C60.332 66.926 60.4934 66.8804 60.6337 66.7942L72.9307 59.4932C73.1715 59.3521 73.4574 59.309 73.7291 59.3729C74.0008 59.4368 74.2376 59.6028 74.3903 59.8364C74.543 60.0701 74.6 60.3535 74.5494 60.628C74.4989 60.9025 74.3447 61.1471 74.1188 61.311L74.1129 61.3526Z" fill="#858A73"/>
<path d="M76.1386 50.8913H74.0594C73.9093 45.4306 71.8122 40.2034 68.1465 36.1532C64.4808 32.103 59.488 29.4965 54.0693 28.8042C54.5662 28.2486 54.8917 27.561 55.0064 26.8245C55.1212 26.088 55.0203 25.334 54.716 24.6536C54.4117 23.9731 53.9169 23.3953 53.2914 22.9898C52.6659 22.5844 51.9365 22.3687 51.1911 22.3687C50.4457 22.3687 49.7162 22.5844 49.0907 22.9898C48.4653 23.3953 47.9705 23.9731 47.6662 24.6536C47.3619 25.334 47.261 26.088 47.3757 26.8245C47.4905 27.561 47.816 28.2486 48.3129 28.8042C42.8926 29.494 37.8977 32.0996 34.2306 36.1502C30.5635 40.2008 28.4659 45.4293 28.3168 50.8913H25.6436C25.4072 50.8913 25.1806 50.9852 25.0135 51.1523C24.8464 51.3194 24.7525 51.5461 24.7525 51.7824C24.7525 52.0187 24.8464 52.2454 25.0135 52.4125C25.1806 52.5796 25.4072 52.6735 25.6436 52.6735H76.1386C76.3749 52.6735 76.6016 52.5796 76.7687 52.4125C76.9358 52.2454 77.0297 52.0187 77.0297 51.7824C77.0297 51.5461 76.9358 51.3194 76.7687 51.1523C76.6016 50.9852 76.3749 50.8913 76.1386 50.8913ZM51.1881 24.1586C51.5993 24.1586 52.0013 24.2806 52.3433 24.509C52.6852 24.7375 52.9517 25.0622 53.1091 25.4422C53.2664 25.8221 53.3076 26.2401 53.2274 26.6435C53.1471 27.0468 52.9491 27.4173 52.6583 27.7081C52.3676 27.9988 51.9971 28.1969 51.5937 28.2771C51.1904 28.3573 50.7724 28.3161 50.3924 28.1588C50.0125 28.0014 49.6878 27.7349 49.4593 27.393C49.2309 27.0511 49.1089 26.6491 49.1089 26.2378C49.1089 25.6864 49.328 25.1575 49.7179 24.7676C50.1078 24.3777 50.6367 24.1586 51.1881 24.1586ZM51.1881 30.3963C56.6785 30.3986 61.9519 32.5402 65.8893 36.3667C69.8267 40.1931 72.1181 45.4032 72.2772 50.8913H30.099C30.2582 45.4032 32.5496 40.1931 36.4869 36.3667C40.4243 32.5402 45.6977 30.3986 51.1881 30.3963Z" fill="#858A73"/>
<path d="M46.4 34.6198C43.9521 35.313 41.6848 36.5315 39.7559 38.1905C37.8271 39.8495 36.2832 41.9091 35.2317 44.2258C35.1726 44.3337 35.1364 44.4527 35.1256 44.5754C35.1148 44.698 35.1294 44.8215 35.1687 44.9381C35.208 45.0548 35.271 45.162 35.3538 45.2531C35.4365 45.3442 35.5373 45.4172 35.6497 45.4674C35.762 45.5176 35.8836 45.544 36.0067 45.5449C36.1298 45.5458 36.2517 45.5212 36.3648 45.4726C36.4779 45.4241 36.5797 45.3526 36.6638 45.2628C36.7479 45.1729 36.8125 45.0666 36.8535 44.9505C37.8001 42.8723 39.1881 41.0251 40.9208 39.5376C42.6536 38.05 44.6895 36.9577 46.8871 36.3367C46.9999 36.3047 47.1052 36.2508 47.1971 36.1781C47.289 36.1054 47.3657 36.0153 47.4228 35.913C47.4799 35.8107 47.5163 35.6981 47.5299 35.5817C47.5434 35.4653 47.534 35.3474 47.502 35.2347C47.47 35.1219 47.4161 35.0166 47.3434 34.9247C47.2707 34.8328 47.1807 34.7561 47.0783 34.699C46.976 34.6419 46.8634 34.6055 46.747 34.592C46.6307 34.5784 46.5127 34.5878 46.4 34.6198Z" fill="#858A73"/>
</svg>
