<svg width="20" height="20" viewBox="0 0 20 20" fill="none" xmlns="http://www.w3.org/2000/svg">
<g clip-path="url(#clip0_220_6324)">
<path d="M15.8332 3.3335H4.1665C3.50346 3.3335 2.86758 3.59689 2.39874 4.06573C1.9299 4.53457 1.6665 5.17045 1.6665 5.8335V14.1668C1.6665 14.8299 1.9299 15.4658 2.39874 15.9346C2.86758 16.4034 3.50346 16.6668 4.1665 16.6668H15.8332C16.4962 16.6668 17.1321 16.4034 17.6009 15.9346C18.0698 15.4658 18.3332 14.8299 18.3332 14.1668V5.8335C18.3332 5.17045 18.0698 4.53457 17.6009 4.06573C17.1321 3.59689 16.4962 3.3335 15.8332 3.3335ZM15.2748 5.00016L9.99984 8.9585L4.72484 5.00016H15.2748ZM15.8332 15.0002H4.1665C3.94549 15.0002 3.73353 14.9124 3.57725 14.7561C3.42097 14.5998 3.33317 14.3878 3.33317 14.1668V6.04183L9.49984 10.6668C9.64408 10.775 9.81953 10.8335 9.99984 10.8335C10.1801 10.8335 10.3556 10.775 10.4998 10.6668L16.6665 6.04183V14.1668C16.6665 14.3878 16.5787 14.5998 16.4224 14.7561C16.2661 14.9124 16.0542 15.0002 15.8332 15.0002Z" fill="#DBDBDB"/>
</g>
<defs>
<clipPath id="clip0_220_6324">
<rect width="20" height="20" fill="white"/>
</clipPath>
</defs>
</svg>
