<svg width="24" height="24" viewBox="0 0 24 24" fill="none" xmlns="http://www.w3.org/2000/svg">
<g clip-path="url(#clip0_220_5815)">
<path d="M3.95006 11H18.0901L16.7901 9.71C16.6018 9.5217 16.496 9.2663 16.496 9C16.496 8.7337 16.6018 8.47831 16.7901 8.29C16.9784 8.1017 17.2338 7.99591 17.5001 7.99591C17.7664 7.99591 18.0218 8.1017 18.2101 8.29L21.2101 11.29C21.3038 11.383 21.3782 11.4936 21.429 11.6154C21.4797 11.7373 21.5059 11.868 21.5059 12C21.5059 12.132 21.4797 12.2627 21.429 12.3846C21.3782 12.5064 21.3038 12.617 21.2101 12.71L18.2101 15.71C18.1171 15.8037 18.0065 15.8781 17.8846 15.9289C17.7628 15.9797 17.6321 16.0058 17.5001 16.0058C17.368 16.0058 17.2373 15.9797 17.1155 15.9289C16.9936 15.8781 16.883 15.8037 16.7901 15.71C16.6963 15.617 16.6219 15.5064 16.5712 15.3846C16.5204 15.2627 16.4943 15.132 16.4943 15C16.4943 14.868 16.5204 14.7373 16.5712 14.6154C16.6219 14.4936 16.6963 14.383 16.7901 14.29L18.0901 13H3.95006C3.70202 12.9879 3.46736 12.8839 3.29176 12.7083C3.11616 12.5327 3.01218 12.298 3.00006 12.05V12C2.99974 11.7432 3.09821 11.4962 3.27506 11.31C3.45192 11.1238 3.69361 11.0128 3.95006 11Z" fill="white"/>
<path d="M3.95 17H20.05C20.5747 17 21 17.4253 21 17.95V18.05C21 18.5747 20.5747 19 20.05 19H3.95C3.42533 19 3 18.5747 3 18.05V17.95C3 17.4253 3.42533 17 3.95 17Z" fill="white"/>
<path d="M3.95 5H20.05C20.5747 5 21 5.42533 21 5.95V6.05C21 6.57467 20.5747 7 20.05 7H3.95C3.42533 7 3 6.57467 3 6.05V5.95C3 5.42533 3.42533 5 3.95 5Z" fill="white"/>
</g>
<defs>
<clipPath id="clip0_220_5815">
<rect width="24" height="24" fill="white" transform="matrix(-1 0 0 1 24 0)"/>
</clipPath>
</defs>
</svg>
