<svg width="40" height="40" viewBox="0 0 40 40" fill="none" xmlns="http://www.w3.org/2000/svg">
<circle cx="20" cy="20" r="19.5" stroke="#DBDBDB"/>
<path fill-rule="evenodd" clip-rule="evenodd" d="M20 10C22.7156 10 23.0569 10.011 24.1229 10.0606C24.9526 10.0764 25.7735 10.2334 26.5505 10.5248C27.2145 10.7822 27.8176 11.1753 28.3211 11.6789C28.8247 12.1824 29.2178 12.7855 29.4752 13.4495C29.766 14.2248 29.923 15.0438 29.9395 15.8716C29.989 16.9376 30 17.2789 30 19.9945C30 22.7101 29.989 23.0514 29.9395 24.1174C29.9236 24.9471 29.7666 25.768 29.4752 26.545C29.2178 27.209 28.8247 27.812 28.3211 28.3156C27.8176 28.8192 27.2145 29.2123 26.5505 29.4697C25.7756 29.7624 24.9566 29.9212 24.1284 29.9394C23.0624 29.989 22.7211 30 20.0055 30C17.2899 30 16.9486 29.989 15.8826 29.9394C15.0529 29.9236 14.232 29.7666 13.455 29.4752C12.791 29.2178 12.1879 28.8247 11.6844 28.3211C11.1808 27.8176 10.7877 27.2145 10.5303 26.5505C10.2376 25.7756 10.0788 24.9566 10.0605 24.1284C10.011 23.0624 10 22.7211 10 20.0055C10 17.2899 10.011 16.9486 10.0605 15.8826C10.0764 15.0529 10.2334 14.232 10.5248 13.455C10.7816 12.79 11.1743 12.1859 11.678 11.6813C12.1816 11.1767 12.785 10.7828 13.4495 10.5248C14.2248 10.234 15.0438 10.077 15.8716 10.0606C16.9431 10.011 17.2844 10 20 10ZM24.0367 11.8606C22.9835 11.8128 22.6661 11.8018 20 11.8018C17.3339 11.8018 17.0128 11.8128 15.9633 11.8606C15.3282 11.8671 14.6988 11.9825 14.1027 12.2018C13.6707 12.3684 13.2784 12.6236 12.951 12.951C12.6236 13.2784 12.3684 13.6707 12.2018 14.1028C11.9823 14.6976 11.8662 15.3256 11.8587 15.9596C11.811 17.0128 11.8 17.3303 11.8 19.9963C11.8 22.6624 11.811 22.9835 11.8587 24.033C11.8654 24.6695 11.9815 25.3001 12.2018 25.8972C12.3684 26.3293 12.6236 26.7216 12.951 27.049C13.2784 27.3764 13.6707 27.6316 14.1027 27.7982C14.6976 28.0177 15.3256 28.1338 15.9596 28.1413C17.0128 28.189 17.3303 28.2 19.9963 28.2C22.6624 28.2 22.9835 28.189 24.033 28.1413C24.6695 28.1346 25.3001 28.0185 25.8973 27.7982C26.3293 27.6316 26.7216 27.3764 27.049 27.049C27.3764 26.7216 27.6316 26.3293 27.7982 25.8972C28.0177 25.3024 28.1338 24.6744 28.1413 24.0404C28.189 22.9872 28.2 22.6697 28.2 20.0037C28.2 17.3376 28.189 17.0165 28.1413 15.967C28.1346 15.3305 28.0185 14.6999 27.7982 14.1028C27.6316 13.6707 27.3764 13.2784 27.049 12.951C26.7216 12.6236 26.3293 12.3684 25.8973 12.2018C25.3023 11.9829 24.6743 11.8675 24.0404 11.8606H24.0367ZM20 23.3339C20.6594 23.3339 21.304 23.1384 21.8522 22.7721C22.4005 22.4057 22.8278 21.885 23.0802 21.2758C23.3325 20.6666 23.3985 19.9963 23.2699 19.3496C23.1412 18.7029 22.8237 18.1088 22.3575 17.6425C21.8912 17.1763 21.2971 16.8588 20.6504 16.7301C20.0037 16.6015 19.3334 16.6675 18.7242 16.9198C18.115 17.1722 17.5943 17.5995 17.2279 18.1478C16.8616 18.696 16.6661 19.3406 16.6661 20C16.6665 20.8841 17.0179 21.7318 17.6431 22.3569C18.2682 22.982 19.1159 23.3335 20 23.3339ZM20 14.8642C21.0161 14.8642 22.0094 15.1655 22.8543 15.7301C23.6992 16.2946 24.3577 17.097 24.7465 18.0358C25.1354 18.9745 25.2371 20.0075 25.0389 21.0041C24.8407 22.0007 24.3513 22.9162 23.6328 23.6347C22.9143 24.3532 21.9989 24.8425 21.0023 25.0407C20.0057 25.239 18.9727 25.1372 18.0339 24.7484C17.0951 24.3595 16.2928 23.701 15.7282 22.8561C15.1637 22.0113 14.8624 21.018 14.8624 20.0018C14.8624 18.6393 15.4037 17.3325 16.3672 16.369C17.3306 15.4055 18.6374 14.8642 20 14.8642ZM26.5376 14.6624C26.5376 14.8997 26.4672 15.1317 26.3354 15.3291C26.2035 15.5264 26.0161 15.6802 25.7968 15.771C25.5776 15.8619 25.3363 15.8856 25.1035 15.8393C24.8707 15.793 24.6569 15.6787 24.4891 15.5109C24.3213 15.3431 24.207 15.1293 24.1607 14.8965C24.1144 14.6637 24.1381 14.4224 24.229 14.2032C24.3198 13.9839 24.4736 13.7965 24.6709 13.6646C24.8683 13.5328 25.1003 13.4624 25.3376 13.4624C25.6559 13.4624 25.9611 13.5888 26.1861 13.8139C26.4112 14.0389 26.5376 14.3441 26.5376 14.6624Z" fill="#DBDBDB"/>
</svg>
