<svg width="343" height="98" viewBox="0 0 343 98" fill="none" xmlns="http://www.w3.org/2000/svg">
<path d="M93.8019 68.8441C89.2109 79.2093 81.1679 87.6619 71.0434 92.7617C60.9188 97.8616 49.3392 99.2931 38.2776 96.8124C27.2159 94.3318 17.3566 88.0923 10.3796 79.1573C3.40252 70.2223 -0.260578 59.1444 0.014419 47.8114C0.289416 36.4783 4.48549 25.5912 11.8877 17.0051C19.2899 8.41892 29.4402 2.66503 40.6092 0.723773C51.7781 -1.21749 63.2747 0.773992 73.1399 6.35889C83.0052 11.9438 90.6287 20.7765 94.7116 31.3522L49 49L93.8019 68.8441Z" fill="#E4CBA0"/>
<mask id="path-2-inside-1_725_227" fill="white">
<path fill-rule="evenodd" clip-rule="evenodd" d="M213.624 49.543C213.512 53.9725 212.194 58.3101 209.783 62.076C208.674 63.8071 207.359 65.3791 205.876 66.7623C203.347 69.1206 200.327 70.9304 197.004 72.0456C191.733 73.8148 186.015 73.7295 180.799 71.8039C175.582 69.8782 171.181 66.2277 168.323 61.4576C165.466 56.6875 164.324 51.0841 165.088 45.5764C165.852 40.0686 168.475 34.9872 172.522 31.1744C176.326 27.5906 181.174 25.3299 186.346 24.7109C186.674 24.6717 187.003 24.639 187.334 24.613L187.342 24.6124L187.42 25.6094L189.142 47.614L189.245 48.9256L190.175 47.9953L205.782 32.3881L206.489 31.6811C202.076 27.2678 195.979 24.5381 189.244 24.5381C175.776 24.5381 164.857 35.4567 164.857 48.9256C164.857 62.3944 175.776 73.313 189.244 73.313C195.672 73.313 201.519 70.8262 205.876 66.7623C210.508 62.4411 213.455 56.3369 213.624 49.543ZM207.148 32.3662C207.159 32.3783 207.17 32.3905 207.182 32.4026C210.711 36.2338 212.927 41.1023 213.49 46.2983C213.564 46.9764 213.608 47.655 213.625 48.3325C213.478 42.1737 211.048 36.5803 207.148 32.3662ZM189.952 49.6327L206.474 33.1103C209.842 36.7798 211.957 41.4367 212.496 46.406C213.07 51.7074 211.816 57.046 208.94 61.5368C206.065 66.0275 201.741 69.4008 196.686 71.0975C191.631 72.7942 186.147 72.7125 181.145 70.8657C176.143 69.019 171.921 65.5183 169.181 60.9437C166.441 56.3692 165.346 50.9956 166.079 45.7137C166.811 40.4318 169.326 35.5587 173.208 31.9023C176.846 28.4748 181.48 26.3093 186.424 25.7087L188.248 49.0036L188.417 51.1674L189.952 49.6327Z"/>
</mask>
<path fill-rule="evenodd" clip-rule="evenodd" d="M213.624 49.543C213.512 53.9725 212.194 58.3101 209.783 62.076C208.674 63.8071 207.359 65.3791 205.876 66.7623C203.347 69.1206 200.327 70.9304 197.004 72.0456C191.733 73.8148 186.015 73.7295 180.799 71.8039C175.582 69.8782 171.181 66.2277 168.323 61.4576C165.466 56.6875 164.324 51.0841 165.088 45.5764C165.852 40.0686 168.475 34.9872 172.522 31.1744C176.326 27.5906 181.174 25.3299 186.346 24.7109C186.674 24.6717 187.003 24.639 187.334 24.613L187.342 24.6124L187.42 25.6094L189.142 47.614L189.245 48.9256L190.175 47.9953L205.782 32.3881L206.489 31.6811C202.076 27.2678 195.979 24.5381 189.244 24.5381C175.776 24.5381 164.857 35.4567 164.857 48.9256C164.857 62.3944 175.776 73.313 189.244 73.313C195.672 73.313 201.519 70.8262 205.876 66.7623C210.508 62.4411 213.455 56.3369 213.624 49.543ZM207.148 32.3662C207.159 32.3783 207.17 32.3905 207.182 32.4026C210.711 36.2338 212.927 41.1023 213.49 46.2983C213.564 46.9764 213.608 47.655 213.625 48.3325C213.478 42.1737 211.048 36.5803 207.148 32.3662ZM189.952 49.6327L206.474 33.1103C209.842 36.7798 211.957 41.4367 212.496 46.406C213.07 51.7074 211.816 57.046 208.94 61.5368C206.065 66.0275 201.741 69.4008 196.686 71.0975C191.631 72.7942 186.147 72.7125 181.145 70.8657C176.143 69.019 171.921 65.5183 169.181 60.9437C166.441 56.3692 165.346 50.9956 166.079 45.7137C166.811 40.4318 169.326 35.5587 173.208 31.9023C176.846 28.4748 181.48 26.3093 186.424 25.7087L188.248 49.0036L188.417 51.1674L189.952 49.6327Z" fill="white"/>
<path d="M209.783 62.076L210.625 62.6152L209.783 62.076ZM213.624 49.543L214.624 49.5679L212.625 49.5177L213.624 49.543ZM197.004 72.0456L196.686 71.0975L197.004 72.0456ZM180.799 71.8039L181.145 70.8657L180.799 71.8039ZM168.323 61.4576L167.465 61.9715L168.323 61.4576ZM165.088 45.5764L164.098 45.4391L165.088 45.5764ZM172.522 31.1744L171.836 30.4465L172.522 31.1744ZM186.346 24.7109L186.227 23.718L186.227 23.718L186.346 24.7109ZM187.334 24.613L187.256 23.6161L187.255 23.6161L187.334 24.613ZM187.342 24.6124L188.338 24.5344L188.26 23.5374L187.263 23.6155L187.342 24.6124ZM187.42 25.6094L186.423 25.6874V25.6874L187.42 25.6094ZM189.142 47.614L190.139 47.536V47.536L189.142 47.614ZM189.245 48.9256L188.248 49.0036L188.417 51.1674L189.952 49.6327L189.245 48.9256ZM190.175 47.9953L190.882 48.7024L190.175 47.9953ZM205.782 32.3881L206.489 33.0952L205.782 32.3881ZM206.489 31.6811L207.196 32.3882L207.903 31.6811L207.196 30.974L206.489 31.6811ZM207.182 32.4026L207.917 31.7251L207.917 31.725L207.182 32.4026ZM207.148 32.3662L207.882 31.687L206.414 33.0453L207.148 32.3662ZM213.49 46.2983L214.484 46.1906V46.1906L213.49 46.2983ZM213.625 48.3325L212.625 48.3568L214.625 48.3086L213.625 48.3325ZM206.474 33.1103L207.211 32.4341L206.505 31.6652L205.767 32.4032L206.474 33.1103ZM189.952 49.6327L190.659 50.3398H190.659L189.952 49.6327ZM212.496 46.406L213.49 46.2983L212.496 46.406ZM208.94 61.5368L209.783 62.076L208.94 61.5368ZM196.686 71.0975L197.004 72.0456L196.686 71.0975ZM181.145 70.8657L180.799 71.8039L181.145 70.8657ZM169.181 60.9437L170.039 60.4299H170.039L169.181 60.9437ZM166.079 45.7137L165.088 45.5764H165.088L166.079 45.7137ZM173.208 31.9023L173.893 32.6301L173.208 31.9023ZM186.424 25.7087L187.421 25.6307L187.34 24.5902L186.304 24.716L186.424 25.7087ZM188.248 49.0036L189.245 48.9256L188.248 49.0036ZM188.417 51.1674L187.42 51.2454L187.589 53.4092L189.124 51.8745L188.417 51.1674ZM210.625 62.6152C213.135 58.6949 214.507 54.1794 214.624 49.5684L212.625 49.5177C212.517 53.7655 211.253 57.9253 208.94 61.5368L210.625 62.6152ZM206.558 67.4937C208.102 66.0537 209.471 64.4173 210.625 62.6152L208.94 61.5368C207.877 63.1969 206.617 64.7044 205.194 66.0309L206.558 67.4937ZM197.322 72.9936C200.781 71.8327 203.925 69.9487 206.558 67.4937L205.194 66.0309C202.768 68.2925 199.872 70.0281 196.686 71.0975L197.322 72.9936ZM180.452 72.742C185.883 74.7466 191.835 74.8354 197.322 72.9936L196.686 71.0975C191.631 72.7942 186.147 72.7125 181.145 70.8657L180.452 72.742ZM167.465 61.9715C170.44 66.9372 175.022 70.7373 180.452 72.742L181.145 70.8657C176.143 69.019 171.921 65.5183 169.181 60.9437L167.465 61.9715ZM164.098 45.4391C163.303 51.1727 164.491 57.0058 167.465 61.9715L169.181 60.9437C166.441 56.3692 165.346 50.9956 166.079 45.7137L164.098 45.4391ZM171.836 30.4465C167.623 34.4157 164.893 39.7055 164.098 45.4391L166.079 45.7137C166.811 40.4318 169.326 35.5587 173.208 31.9023L171.836 30.4465ZM186.227 23.718C180.843 24.3623 175.796 26.7158 171.836 30.4465L173.208 31.9023C176.856 28.4654 181.505 26.2974 186.465 25.7038L186.227 23.718ZM187.255 23.6161C186.912 23.6432 186.569 23.6771 186.227 23.718L186.465 25.7038C186.78 25.6662 187.095 25.6349 187.412 25.61L187.255 23.6161ZM187.263 23.6155L187.256 23.6161L187.412 25.61L187.42 25.6094L187.263 23.6155ZM188.417 25.5314L188.338 24.5344L186.345 24.6905L186.423 25.6874L188.417 25.5314ZM190.139 47.536L188.417 25.5314L186.423 25.6874L188.145 47.692L190.139 47.536ZM190.241 48.8475L190.139 47.536L188.145 47.692L188.248 49.0036L190.241 48.8475ZM189.468 47.2882L188.537 48.2184L189.952 49.6327L190.882 48.7024L189.468 47.2882ZM205.075 31.681L189.468 47.2882L190.882 48.7024L206.489 33.0952L205.075 31.681ZM205.782 30.974L205.075 31.681L206.489 33.0952L207.196 32.3882L205.782 30.974ZM189.244 25.5381C195.703 25.5381 201.548 28.1547 205.782 32.3882L207.196 30.974C202.603 26.3808 196.255 23.5381 189.244 23.5381V25.5381ZM165.857 48.9256C165.857 36.009 176.328 25.5381 189.244 25.5381V23.5381C175.223 23.5381 163.857 34.9044 163.857 48.9256H165.857ZM189.244 72.313C176.328 72.313 165.857 61.8421 165.857 48.9256H163.857C163.857 62.9467 175.223 74.313 189.244 74.313V72.313ZM205.194 66.031C201.015 69.9291 195.409 72.313 189.244 72.313V74.313C195.935 74.313 202.024 71.7233 206.558 67.4935L205.194 66.031ZM212.625 49.5182C212.463 56.0328 209.638 61.8857 205.194 66.031L206.558 67.4935C211.379 62.9966 214.448 56.641 214.624 49.5679L212.625 49.5182ZM207.917 31.725C207.906 31.7135 207.894 31.7002 207.882 31.6872L206.414 33.0453C206.424 33.0564 206.435 33.0675 206.446 33.0802L207.917 31.725ZM214.484 46.1906C213.898 40.7815 211.591 35.7133 207.917 31.7251L206.446 33.0801C209.831 36.7542 211.956 41.4231 212.496 46.406L214.484 46.1906ZM214.625 48.3082C214.607 47.6029 214.561 46.8964 214.484 46.1906L212.496 46.406C212.566 47.0563 212.609 47.7071 212.625 48.3568L214.625 48.3082ZM206.414 33.0454C210.155 37.0875 212.484 42.4503 212.625 48.3564L214.625 48.3086C214.472 41.8971 211.941 36.073 207.882 31.687L206.414 33.0454ZM205.767 32.4032L189.245 48.9256L190.659 50.3398L207.181 33.8174L205.767 32.4032ZM213.49 46.2983C212.929 41.1165 210.723 36.2604 207.211 32.4341L205.737 33.7866C208.962 37.2991 210.986 41.7569 211.502 46.5138L213.49 46.2983ZM209.783 62.076C212.781 57.3932 214.089 51.8264 213.49 46.2983L211.502 46.5138C212.052 51.5885 210.851 56.6988 208.098 60.9975L209.783 62.076ZM197.004 72.0456C202.276 70.2763 206.784 66.7588 209.783 62.076L208.098 60.9975C205.346 65.2963 201.207 68.5253 196.368 70.1495L197.004 72.0456ZM180.799 71.8039C186.015 73.7295 191.733 73.8148 197.004 72.0456L196.368 70.1495C191.529 71.7737 186.28 71.6954 181.491 69.9276L180.799 71.8039ZM168.323 61.4576C171.181 66.2277 175.582 69.8782 180.799 71.8039L181.491 69.9276C176.703 68.1599 172.662 64.8088 170.039 60.4299L168.323 61.4576ZM165.088 45.5764C164.324 51.0841 165.466 56.6875 168.323 61.4576L170.039 60.4299C167.416 56.0509 166.368 50.9071 167.069 45.8511L165.088 45.5764ZM172.522 31.1744C168.475 34.9872 165.852 40.0686 165.088 45.5764L167.069 45.8511C167.77 40.795 170.178 36.1303 173.893 32.6301L172.522 31.1744ZM186.304 24.716C181.148 25.3423 176.316 27.6004 172.522 31.1744L173.893 32.6301C177.376 29.3493 181.812 27.2763 186.545 26.7014L186.304 24.716ZM189.245 48.9256L187.421 25.6307L185.427 25.7868L187.251 49.0816L189.245 48.9256ZM189.414 51.0893L189.245 48.9256L187.251 49.0816L187.42 51.2454L189.414 51.0893ZM189.245 48.9256L187.71 50.4603L189.124 51.8745L190.659 50.3398L189.245 48.9256Z" fill="#2D2D2D" mask="url(#path-2-inside-1_725_227)"/>
<mask id="path-4-inside-2_725_227" fill="white">
<path fill-rule="evenodd" clip-rule="evenodd" d="M301.855 71.0033C307.357 73.512 313.794 73.9913 319.958 71.8543C332.684 67.4424 339.424 53.5495 335.012 40.8238C332.747 34.2907 327.983 29.3353 322.161 26.6564C316.833 24.2047 310.619 23.6599 304.623 25.5576C305.473 25.2891 306.34 25.0664 307.221 24.8915C312.273 23.8887 317.501 24.5127 322.161 26.6564C322.533 26.8272 322.9 27.0076 323.264 27.1976C327.896 29.618 331.62 33.458 333.899 38.1419C334.044 38.4389 334.182 38.7393 334.315 39.043L334.318 39.0501L333.402 39.4504L313.175 48.2856L311.97 48.8122L313.153 49.3864L333.012 59.0202L333.912 59.4566C333.766 59.7571 333.614 60.0541 333.457 60.3474C330.993 64.9369 327.119 68.6255 322.394 70.8595C317.367 73.2363 311.679 73.8239 306.272 72.5249C304.746 72.158 303.267 71.647 301.855 71.0033ZM300.932 70.5591C297.724 68.9309 294.895 66.6019 292.667 63.7172C291.159 61.7638 289.967 59.6076 289.117 57.3274C291.334 63.2851 295.651 67.8795 300.932 70.5591ZM288.746 56.256C287.931 53.7129 287.533 51.035 287.587 48.3265C287.649 45.2026 288.31 42.1433 289.511 39.3061C287.308 44.5067 286.894 50.4852 288.746 56.256ZM290.654 36.9634C293.361 32.0895 297.739 28.1214 303.329 26.0069C299.442 27.4796 295.974 29.9302 293.276 33.1504C292.277 34.3424 291.401 35.6199 290.654 36.9634ZM311.533 49.7119L332.556 59.9106C330.193 64.295 326.485 67.8189 321.967 69.9555C317.146 72.2348 311.691 72.7983 306.506 71.5525C301.321 70.3068 296.718 67.3266 293.459 63.106C290.2 58.8854 288.481 53.6778 288.587 48.3464C288.693 43.015 290.618 37.88 294.043 33.7926C297.467 29.7051 302.186 26.9106 307.416 25.8724C312.646 24.8341 318.075 25.6144 322.801 28.0839C327.231 30.3987 330.795 34.0674 332.982 38.5426L311.569 47.8958L309.581 48.7646L311.533 49.7119Z"/>
</mask>
<path fill-rule="evenodd" clip-rule="evenodd" d="M301.855 71.0033C307.357 73.512 313.794 73.9913 319.958 71.8543C332.684 67.4424 339.424 53.5495 335.012 40.8238C332.747 34.2907 327.983 29.3353 322.161 26.6564C316.833 24.2047 310.619 23.6599 304.623 25.5576C305.473 25.2891 306.34 25.0664 307.221 24.8915C312.273 23.8887 317.501 24.5127 322.161 26.6564C322.533 26.8272 322.9 27.0076 323.264 27.1976C327.896 29.618 331.62 33.458 333.899 38.1419C334.044 38.4389 334.182 38.7393 334.315 39.043L334.318 39.0501L333.402 39.4504L313.175 48.2856L311.97 48.8122L313.153 49.3864L333.012 59.0202L333.912 59.4566C333.766 59.7571 333.614 60.0541 333.457 60.3474C330.993 64.9369 327.119 68.6255 322.394 70.8595C317.367 73.2363 311.679 73.8239 306.272 72.5249C304.746 72.158 303.267 71.647 301.855 71.0033ZM300.932 70.5591C297.724 68.9309 294.895 66.6019 292.667 63.7172C291.159 61.7638 289.967 59.6076 289.117 57.3274C291.334 63.2851 295.651 67.8795 300.932 70.5591ZM288.746 56.256C287.931 53.7129 287.533 51.035 287.587 48.3265C287.649 45.2026 288.31 42.1433 289.511 39.3061C287.308 44.5067 286.894 50.4852 288.746 56.256ZM290.654 36.9634C293.361 32.0895 297.739 28.1214 303.329 26.0069C299.442 27.4796 295.974 29.9302 293.276 33.1504C292.277 34.3424 291.401 35.6199 290.654 36.9634ZM311.533 49.7119L332.556 59.9106C330.193 64.295 326.485 67.8189 321.967 69.9555C317.146 72.2348 311.691 72.7983 306.506 71.5525C301.321 70.3068 296.718 67.3266 293.459 63.106C290.2 58.8854 288.481 53.6778 288.587 48.3464C288.693 43.015 290.618 37.88 294.043 33.7926C297.467 29.7051 302.186 26.9106 307.416 25.8724C312.646 24.8341 318.075 25.6144 322.801 28.0839C327.231 30.3987 330.795 34.0674 332.982 38.5426L311.569 47.8958L309.581 48.7646L311.533 49.7119Z" fill="white"/>
<path d="M301.855 71.0033L302.27 70.0933L301.44 71.9131L301.855 71.0033ZM304.623 25.5576L304.321 24.6042L304.924 26.5112L304.623 25.5576ZM307.221 24.8915L307.416 25.8724L307.221 24.8915ZM323.264 27.1976L323.727 26.3113L323.727 26.3113L323.264 27.1976ZM333.899 38.1419L334.798 37.7044L334.798 37.7044L333.899 38.1419ZM334.315 39.043L335.231 38.6427L335.231 38.6424L334.315 39.043ZM334.318 39.0501L334.718 39.9665L335.635 39.5662L335.234 38.6498L334.318 39.0501ZM333.402 39.4504L333.001 38.534L333.001 38.534L333.402 39.4504ZM313.175 48.2856L312.775 47.3692L313.175 48.2856ZM311.97 48.8122L311.569 47.8958L309.581 48.7646L311.533 49.7119L311.97 48.8122ZM313.153 49.3864L312.717 50.2862L313.153 49.3864ZM333.012 59.0202L333.448 58.1204L333.448 58.1204L333.012 59.0202ZM333.912 59.4566L334.811 59.8931L335.248 58.9934L334.348 58.5569L333.912 59.4566ZM333.457 60.3474L332.576 59.8744L332.576 59.8744L333.457 60.3474ZM322.394 70.8595L321.967 69.9555L322.394 70.8595ZM306.272 72.5249L306.039 73.4972L306.272 72.5249ZM292.667 63.7172L291.876 64.3284L292.667 63.7172ZM300.932 70.5591L300.48 71.4509L301.385 69.6674L300.932 70.5591ZM289.117 57.3274L290.054 56.9783L288.18 57.6762L289.117 57.3274ZM287.587 48.3265L286.587 48.3066L286.587 48.3066L287.587 48.3265ZM288.746 56.256L287.794 56.5616L289.698 55.9508L288.746 56.256ZM289.511 39.3061L290.432 39.6959L288.59 38.916L289.511 39.3061ZM290.654 36.9634L289.78 36.4778L291.528 37.4492L290.654 36.9634ZM303.329 26.0069L303.683 26.942L302.975 25.0716L303.329 26.0069ZM293.276 33.1504L292.509 32.5082L292.509 32.5082L293.276 33.1504ZM332.556 59.9106L333.436 60.3851L333.932 59.4664L332.993 59.0108L332.556 59.9106ZM311.533 49.7119L311.097 50.6117L311.533 49.7119ZM321.967 69.9555L322.394 70.8595L321.967 69.9555ZM288.587 48.3464L289.587 48.3663L288.587 48.3464ZM294.043 33.7926L293.276 33.1504L293.276 33.1504L294.043 33.7926ZM307.416 25.8724L307.221 24.8915L307.221 24.8915L307.416 25.8724ZM322.801 28.0839L322.338 28.9702L322.338 28.9702L322.801 28.0839ZM332.982 38.5426L333.382 39.4589L334.339 39.0412L333.88 38.1035L332.982 38.5426ZM311.569 47.8958L311.97 48.8122L311.569 47.8958ZM309.581 48.7646L309.18 47.8482L307.191 48.717L309.144 49.6644L309.581 48.7646ZM319.631 70.9095C313.719 72.959 307.547 72.4998 302.27 70.0934L301.44 71.9131C307.166 74.5242 313.87 75.0236 320.286 72.7991L319.631 70.9095ZM334.067 41.1514C338.298 53.3553 331.835 66.6784 319.631 70.9095L320.286 72.7991C333.533 68.2063 340.55 53.7438 335.957 40.4963L334.067 41.1514ZM321.743 27.5649C327.328 30.1346 331.895 34.886 334.067 41.1514L335.957 40.4963C333.599 33.6954 328.638 28.5359 322.579 25.748L321.743 27.5649ZM304.925 26.511C310.675 24.6912 316.632 25.2131 321.743 27.5649L322.579 25.748C317.034 23.1964 310.564 22.6286 304.321 24.6042L304.925 26.511ZM307.027 23.9106C306.109 24.0927 305.207 24.3246 304.322 24.6041L304.924 26.5112C305.739 26.2537 306.571 26.0401 307.416 25.8724L307.027 23.9106ZM322.579 25.7479C317.728 23.5164 312.285 22.8667 307.027 23.9106L307.416 25.8724C312.26 24.9107 317.275 25.5091 321.743 27.5649L322.579 25.7479ZM323.727 26.3113C323.348 26.1135 322.966 25.9257 322.579 25.7479L321.743 27.5649C322.099 27.7287 322.452 27.9017 322.801 28.0839L323.727 26.3113ZM334.798 37.7044C332.426 32.8284 328.549 28.8309 323.727 26.3113L322.801 28.0839C327.243 30.405 330.814 34.0876 333 38.5794L334.798 37.7044ZM335.231 38.6424C335.093 38.3263 334.949 38.0136 334.798 37.7044L333 38.5794C333.138 38.8643 333.271 39.1524 333.399 39.4436L335.231 38.6424ZM335.234 38.6498L335.231 38.6427L333.399 39.4433L333.402 39.4504L335.234 38.6498ZM333.802 40.3668L334.718 39.9665L333.918 38.1337L333.001 38.534L333.802 40.3668ZM313.576 49.202L333.802 40.3668L333.001 38.534L312.775 47.3692L313.576 49.202ZM312.37 49.7286L313.576 49.202L312.775 47.3692L311.569 47.8958L312.37 49.7286ZM313.59 48.4867L312.406 47.9125L311.533 49.7119L312.717 50.2862L313.59 48.4867ZM333.448 58.1204L313.59 48.4867L312.717 50.2862L332.575 59.9199L333.448 58.1204ZM334.348 58.5569L333.448 58.1204L332.575 59.9199L333.475 60.3564L334.348 58.5569ZM334.338 60.8204C334.502 60.5151 334.66 60.2059 334.811 59.8931L333.012 59.0202C332.872 59.3084 332.727 59.5932 332.576 59.8744L334.338 60.8204ZM322.821 71.7635C327.74 69.4379 331.773 65.598 334.338 60.8204L332.576 59.8744C330.213 64.2757 326.498 67.8131 321.967 69.9555L322.821 71.7635ZM306.039 73.4972C311.667 74.8495 317.588 74.2378 322.821 71.7635L321.967 69.9555C317.146 72.2348 311.691 72.7983 306.506 71.5525L306.039 73.4972ZM301.44 71.9132C302.91 72.5833 304.449 73.1153 306.039 73.4972L306.506 71.5525C305.042 71.2007 303.624 70.7106 302.27 70.0933L301.44 71.9132ZM291.876 64.3284C294.194 67.3313 297.14 69.7558 300.48 71.4508L301.385 69.6674C298.308 68.1059 295.595 65.8724 293.459 63.106L291.876 64.3284ZM288.18 57.6766C289.065 60.0503 290.305 62.2949 291.876 64.3284L293.459 63.106C292.012 61.2327 290.869 59.165 290.054 56.9783L288.18 57.6766ZM301.385 69.6673C296.319 67.097 292.18 62.6918 290.054 56.9787L288.18 57.6762C290.488 63.8784 294.984 68.6621 300.48 71.4509L301.385 69.6673ZM286.587 48.3066C286.531 51.1261 286.945 53.9138 287.794 56.5612L289.698 55.9508C288.917 53.5119 288.535 50.9439 288.587 48.3464L286.587 48.3066ZM288.59 38.9163C287.34 41.8698 286.652 45.0545 286.587 48.3066L288.587 48.3464C288.647 45.3506 289.281 42.4167 290.432 39.6959L288.59 38.9163ZM289.698 55.9503C287.922 50.4163 288.319 44.6845 290.432 39.6962L288.59 38.916C286.297 44.3289 285.865 50.5542 287.794 56.5616L289.698 55.9503ZM291.528 37.4489C294.125 32.774 298.322 28.97 303.682 26.9422L302.975 25.0716C297.156 27.2729 292.597 31.405 289.78 36.4778L291.528 37.4489ZM302.974 25.0718C298.928 26.6049 295.318 29.1559 292.509 32.5082L294.043 33.7926C296.63 30.7044 299.956 28.3543 303.683 26.942L302.974 25.0718ZM292.509 32.5082C291.47 33.749 290.558 35.0789 289.78 36.4775L291.528 37.4492C292.244 36.1608 293.085 34.9357 294.043 33.7926L292.509 32.5082ZM332.993 59.0108L311.97 48.8122L311.097 50.6117L332.12 60.8103L332.993 59.0108ZM322.394 70.8595C327.106 68.6316 330.972 64.9571 333.436 60.3851L331.676 59.436C329.413 63.633 325.865 67.0062 321.539 69.0514L322.394 70.8595ZM306.272 72.5249C311.679 73.8239 317.367 73.2363 322.394 70.8595L321.539 69.0514C316.925 71.2333 311.703 71.7727 306.74 70.5802L306.272 72.5249ZM292.667 63.7172C296.066 68.1183 300.866 71.2259 306.272 72.5249L306.74 70.5802C301.776 69.3877 297.37 66.535 294.25 62.4948L292.667 63.7172ZM287.587 48.3265C287.476 53.8859 289.269 59.3161 292.667 63.7172L294.25 62.4948C291.13 58.4547 289.485 53.4698 289.587 48.3663L287.587 48.3265ZM293.276 33.1504C289.705 37.4126 287.698 42.7672 287.587 48.3265L289.587 48.3663C289.688 43.2629 291.531 38.3475 294.809 34.4348L293.276 33.1504ZM307.221 24.8915C301.767 25.9742 296.847 28.8881 293.276 33.1504L294.809 34.4348C298.087 30.5221 302.604 27.8471 307.611 26.8532L307.221 24.8915ZM323.264 27.1976C318.336 24.6225 312.675 23.8088 307.221 24.8915L307.611 26.8532C312.617 25.8594 317.813 26.6063 322.338 28.9702L323.264 27.1976ZM333.88 38.1035C331.6 33.437 327.883 29.6114 323.264 27.1976L322.338 28.9702C326.578 31.186 329.99 34.6979 332.083 38.9816L333.88 38.1035ZM311.97 48.8122L333.382 39.4589L332.582 37.6262L311.169 46.9795L311.97 48.8122ZM309.981 49.681L311.97 48.8122L311.169 46.9795L309.18 47.8482L309.981 49.681ZM311.97 48.8122L310.017 47.8649L309.144 49.6644L311.097 50.6117L311.97 48.8122Z" fill="#2D2D2D" mask="url(#path-4-inside-2_725_227)"/>
</svg>
