<svg width="25" height="24" viewBox="0 0 25 24" fill="none" xmlns="http://www.w3.org/2000/svg">
<g clip-path="url(#clip0_166_2816)">
<path d="M20.8584 19.29L17.4584 15.9C18.5554 14.5025 19.1507 12.7767 19.1484 11C19.1484 9.41775 18.6792 7.87103 17.8002 6.55544C16.9211 5.23985 15.6717 4.21447 14.2099 3.60897C12.7481 3.00347 11.1396 2.84504 9.58772 3.15372C8.03587 3.4624 6.61041 4.22433 5.49159 5.34315C4.37277 6.46197 3.61084 7.88743 3.30216 9.43928C2.99348 10.9911 3.1519 12.5997 3.7574 14.0615C4.36291 15.5233 5.38829 16.7727 6.70388 17.6518C8.01947 18.5308 9.56619 19 11.1484 19C12.9251 19.0022 14.6509 18.407 16.0484 17.31L19.4384 20.71C19.5314 20.8037 19.642 20.8781 19.7639 20.9289C19.8857 20.9797 20.0164 21.0058 20.1484 21.0058C20.2805 21.0058 20.4112 20.9797 20.533 20.9289C20.6549 20.8781 20.7655 20.8037 20.8584 20.71C20.9522 20.617 21.0266 20.5064 21.0773 20.3846C21.1281 20.2627 21.1542 20.132 21.1542 20C21.1542 19.868 21.1281 19.7373 21.0773 19.6154C21.0266 19.4936 20.9522 19.383 20.8584 19.29ZM5.14844 11C5.14844 9.81332 5.50033 8.65328 6.15962 7.66658C6.81891 6.67989 7.75598 5.91085 8.85234 5.45673C9.9487 5.0026 11.1551 4.88378 12.319 5.11529C13.4829 5.3468 14.552 5.91825 15.3911 6.75736C16.2302 7.59648 16.8016 8.66558 17.0332 9.82946C17.2647 10.9933 17.1458 12.1997 16.6917 13.2961C16.2376 14.3925 15.4686 15.3295 14.4819 15.9888C13.4952 16.6481 12.3351 17 11.1484 17C9.55714 17 8.03102 16.3679 6.9058 15.2426C5.78058 14.1174 5.14844 12.5913 5.14844 11Z" fill="#2D2D2D"/>
</g>
<defs>
<clipPath id="clip0_166_2816">
<rect width="24" height="24" fill="white" transform="translate(0.148438)"/>
</clipPath>
</defs>
</svg>
