<svg width="24" height="24" viewBox="0 0 24 24" fill="none" xmlns="http://www.w3.org/2000/svg">
<g clip-path="url(#clip0_579_2)">
<path d="M16.9999 13.36C16.9994 13.2253 16.9717 13.0921 16.9184 12.9684C16.8652 12.8446 16.7874 12.7329 16.6899 12.64L12.6899 8.78C12.503 8.59677 12.2517 8.49414 11.9899 8.49414C11.7282 8.49414 11.4769 8.59677 11.2899 8.78L7.28994 12.78C7.1967 12.8732 7.12274 12.9839 7.07228 13.1057C7.02182 13.2276 6.99585 13.3581 6.99585 13.49C6.99585 13.6219 7.02182 13.7524 7.07228 13.8742C7.12274 13.9961 7.1967 14.1068 7.28994 14.2C7.38318 14.2932 7.49387 14.3672 7.61569 14.4177C7.73751 14.4681 7.86808 14.4941 7.99994 14.4941C8.1318 14.4941 8.26237 14.4681 8.38419 14.4177C8.50601 14.3672 8.6167 14.2932 8.70994 14.2L11.9999 10.9L15.2999 14.08C15.4873 14.2662 15.7408 14.3708 16.0049 14.3708C16.2691 14.3708 16.5226 14.2662 16.7099 14.08C16.8038 13.9854 16.8778 13.8729 16.9276 13.7493C16.9775 13.6256 17.002 13.4933 16.9999 13.36Z" fill="white"/>
</g>
<defs>
<clipPath id="clip0_579_2">
<rect width="24" height="24" fill="white" transform="matrix(-4.37114e-08 1 1 4.37114e-08 0 0)"/>
</clipPath>
</defs>
</svg>
