<svg width="24" height="24" viewBox="0 0 24 24" fill="none" xmlns="http://www.w3.org/2000/svg">
<g clip-path="url(#clip0_166_2605)">
<path d="M13.36 7C13.2253 7.00051 13.0921 7.02824 12.9684 7.08151C12.8446 7.13478 12.7329 7.2125 12.64 7.31L8.78 11.31C8.59677 11.4969 8.49414 11.7482 8.49414 12.01C8.49414 12.2718 8.59677 12.5231 8.78 12.71L12.78 16.71C12.8732 16.8032 12.9839 16.8772 13.1057 16.9277C13.2276 16.9781 13.3581 17.0041 13.49 17.0041C13.6219 17.0041 13.7524 16.9781 13.8742 16.9277C13.9961 16.8772 14.1068 16.8032 14.2 16.71C14.2932 16.6168 14.3672 16.5061 14.4177 16.3842C14.4681 16.2624 14.4941 16.1319 14.4941 16C14.4941 15.8681 14.4681 15.7376 14.4177 15.6157C14.3672 15.4939 14.2932 15.3832 14.2 15.29L10.9 12L14.08 8.7C14.2662 8.51263 14.3708 8.25918 14.3708 7.995C14.3708 7.73081 14.2662 7.47736 14.08 7.29C13.9854 7.19611 13.8729 7.12209 13.7493 7.07229C13.6256 7.02249 13.4933 6.99791 13.36 7Z" fill="white"/>
</g>
<defs>
<clipPath id="clip0_166_2605">
<rect width="24" height="24" fill="white" transform="matrix(1 -8.74228e-08 -8.74228e-08 -1 0 24)"/>
</clipPath>
</defs>
</svg>
