<svg width="25" height="24" viewBox="0 0 25 24" fill="none" xmlns="http://www.w3.org/2000/svg">
<g clip-path="url(#clip0_166_2830)">
<path d="M20.2682 6.71L17.4382 3.88C16.8761 3.31723 16.1136 3.0007 15.3182 3H8.97819C8.18281 3.0007 7.42026 3.31723 6.85819 3.88L4.02819 6.71C3.46542 7.27207 3.14889 8.03462 3.14819 8.83V18C3.14819 18.7956 3.46426 19.5587 4.02687 20.1213C4.58948 20.6839 5.35254 21 6.14819 21H18.1482C18.9438 21 19.7069 20.6839 20.2695 20.1213C20.8321 19.5587 21.1482 18.7956 21.1482 18V8.83C21.1475 8.03462 20.831 7.27207 20.2682 6.71ZM8.26819 5.29C8.45983 5.10727 8.71343 5.00368 8.97819 5H15.3182C15.583 5.00368 15.8366 5.10727 16.0282 5.29L17.7382 7H6.55819L8.26819 5.29ZM18.1482 19H6.14819C5.88298 19 5.62862 18.8946 5.44109 18.7071C5.25355 18.5196 5.14819 18.2652 5.14819 18V9H19.1482V18C19.1482 18.2652 19.0428 18.5196 18.8553 18.7071C18.6678 18.8946 18.4134 19 18.1482 19Z" fill="white"/>
<path d="M15.1482 11C14.883 11 14.6286 11.1054 14.4411 11.2929C14.2536 11.4804 14.1482 11.7348 14.1482 12C14.1482 12.5304 13.9375 13.0391 13.5624 13.4142C13.1873 13.7893 12.6786 14 12.1482 14C11.6178 14 11.1091 13.7893 10.734 13.4142C10.3589 13.0391 10.1482 12.5304 10.1482 12C10.1482 11.7348 10.0428 11.4804 9.8553 11.2929C9.66776 11.1054 9.41341 11 9.14819 11C8.88298 11 8.62862 11.1054 8.44109 11.2929C8.25355 11.4804 8.14819 11.7348 8.14819 12C8.14819 13.0609 8.56962 14.0783 9.31977 14.8284C10.0699 15.5786 11.0873 16 12.1482 16C13.2091 16 14.2265 15.5786 14.9766 14.8284C15.7268 14.0783 16.1482 13.0609 16.1482 12C16.1482 11.7348 16.0428 11.4804 15.8553 11.2929C15.6678 11.1054 15.4134 11 15.1482 11Z" fill="white"/>
</g>
<defs>
<clipPath id="clip0_166_2830">
<rect width="24" height="24" fill="white" transform="translate(0.148193)"/>
</clipPath>
</defs>
</svg>
