<svg width="100" height="100" viewBox="0 0 100 100" fill="none" xmlns="http://www.w3.org/2000/svg">
<circle cx="50" cy="50" r="49" stroke="#858A73" stroke-width="2"/>
<path d="M50.2376 31.703C41.7426 31.6436 34.8515 38.5347 34.8515 47.0297C34.8515 49.8812 35.6237 52.6733 37.1089 55.109C37.1089 55.1684 37.1683 55.1684 37.1683 55.2278L49.2277 75.3664C49.4059 75.604 49.6435 75.7822 50 75.7822C50.297 75.7822 50.594 75.604 50.7723 75.3664L63.3069 55.2278C63.3069 55.1684 63.3663 55.109 63.3663 55.109C67.8218 47.8614 65.5643 38.4159 58.3168 33.9604C55.8812 32.4753 53.0891 31.703 50.2376 31.703ZM61.7624 54.2773C61.7624 54.3367 61.703 54.3961 61.703 54.3961L50 73.1684L38.7723 54.4555C38.7723 54.3961 38.7129 54.3367 38.7129 54.2773C34.7327 47.9208 36.6336 39.5446 42.9901 35.5644C49.3465 31.5842 57.7228 33.4852 61.7624 39.8416C64.495 44.2377 64.495 49.8812 61.7624 54.2773Z" fill="#858A73"/>
<path d="M50.2376 41.4453C47.1485 41.4453 44.5941 43.9404 44.5941 47.0889C44.5941 50.2374 47.0891 52.7324 50.2376 52.7324C53.3861 52.7324 55.8812 50.2374 55.8812 47.0889C55.8218 43.9404 53.3267 41.4453 50.2376 41.4453ZM50.2376 50.8909C48.099 50.8909 46.3762 49.1681 46.4356 47.0295C46.4356 44.8909 48.1584 43.1681 50.297 43.2275C52.4356 43.2275 54.099 44.9503 54.099 47.0295C54.0396 49.1681 52.3168 50.8909 50.2376 50.8909Z" fill="#858A73"/>
<path d="M70.4357 38.6535C68.5347 34.1981 65.2079 30.5149 60.9901 28.1387C60.5743 27.901 60.0396 28.0793 59.802 28.4951C59.5644 28.9109 59.7426 29.4456 60.1584 29.6832C63.9604 31.8812 67.0495 35.2674 68.7723 39.307C68.8911 39.6634 69.2475 39.8416 69.604 39.8416C69.7228 39.8416 69.8416 39.8416 69.9604 39.7822C70.4357 39.604 70.6139 39.0694 70.4357 38.6535Z" fill="#858A73"/>
<path d="M50.2376 27.1289C50.7129 27.1289 51.1287 26.713 51.1287 26.2378C51.1287 25.7625 50.7129 25.3467 50.2376 25.3467C38.1188 25.3467 28.2574 35.2081 28.2574 47.3269C28.2574 47.8021 28.6733 48.218 29.1485 48.218C29.6238 48.218 30.0396 47.8021 30.0396 47.3269C30.0396 36.1586 39.0693 27.1289 50.2376 27.1289Z" fill="#858A73"/>
</svg>
