<svg width="100" height="100" viewBox="0 0 100 100" fill="none" xmlns="http://www.w3.org/2000/svg">
<circle cx="50" cy="50" r="49" stroke="#858A73" stroke-width="2"/>
<path d="M80.0368 55.7692H77.7895C77.4684 43.5256 68.1579 33.4615 56.2147 31.9231C56.8568 31.2179 57.3063 30.1923 57.3063 29.1667C57.3063 26.859 55.4442 25 53.1326 25C50.8211 25 48.8947 26.859 48.8947 29.1667C48.8947 30.2564 49.28 31.2179 49.9863 31.9231C37.9789 33.4615 28.6684 43.5256 28.3474 55.7692H25.4579C24.9442 55.7692 24.4947 56.2179 24.4947 56.7308C24.4947 57.2436 24.9442 57.6923 25.4579 57.6923H34.3189C34.1905 57.8205 34.0621 57.9487 33.8695 58.0769C31.6221 60.3205 30.9158 63.3333 32.1358 65.3846H20.9632C20.4495 65.3846 20 65.8333 20 66.3462C20 66.859 20.4495 67.3077 20.9632 67.3077H35.0895C35.1537 67.3077 35.1537 67.3077 35.2179 67.3077C35.4105 67.3077 35.5389 67.3077 35.7316 67.3077C37.4011 67.3077 39.2632 66.4744 40.8042 65C43.0516 62.7564 43.7579 59.7436 42.5379 57.6923H67.0663C66.9379 57.8205 66.8095 57.9487 66.6168 58.0769C64.3695 60.3205 63.6632 63.3974 64.8832 65.3846H57.5632C57.0495 65.3846 56.6 65.8333 56.6 66.3462C56.6 66.859 57.0495 67.3077 57.5632 67.3077H67.8368C67.9011 67.3077 67.9011 67.3077 67.9653 67.3077C68.1579 67.3077 68.2863 67.3077 68.479 67.3077C70.1484 67.3077 72.0105 66.4744 73.5516 65C75.799 62.7564 76.5053 59.6795 75.2853 57.6923H80.0368C80.5505 57.6923 81 57.2436 81 56.7308C81 56.2179 80.5505 55.7692 80.0368 55.7692ZM53.0684 26.9231C54.2884 26.9231 55.3158 27.9487 55.3158 29.1667C55.3158 30.3846 54.2884 31.4103 53.0684 31.4103C51.8484 31.4103 50.8211 30.3846 50.8211 29.1667C50.8211 27.9487 51.8484 26.9231 53.0684 26.9231ZM40.6116 58.2692C41.7674 59.4231 41.1895 61.859 39.4558 63.5897C37.7221 65.3205 35.2179 65.8974 34.1263 64.7436C32.9705 63.5897 33.5484 61.1538 35.2821 59.4231C36.4379 58.2692 37.8505 57.6923 39.0063 57.6923C39.5842 57.6923 40.1621 57.8846 40.6116 58.2692ZM39.2632 55.7692C39.0705 55.7692 38.8137 55.7692 38.6211 55.7692H30.2737C30.5947 43.5256 40.6758 33.6538 53.0684 33.6538C65.3968 33.6538 75.4779 43.5256 75.8632 55.7692H72.0105C71.8179 55.7692 71.5611 55.7692 71.3684 55.7692H39.2632ZM73.3589 58.2692C74.5147 59.4231 73.9368 61.859 72.2032 63.5897C70.4695 65.3205 67.9653 65.8974 66.8737 64.7436C65.7179 63.5897 66.2958 61.1538 68.0295 59.4231C69.1853 58.2692 70.5979 57.6923 71.7537 57.6923C72.3316 57.6923 72.9095 57.8846 73.3589 58.2692Z" fill="#858A73"/>
<path d="M47.8674 38.2048C42.5379 39.7432 38.1074 43.5253 35.7958 48.5894C35.6032 49.1022 35.7958 49.615 36.2453 49.8714C36.3737 49.9355 36.5021 49.9355 36.6306 49.9355C37.0158 49.9355 37.3369 49.7432 37.5295 49.3586C39.5842 44.8073 43.5653 41.4099 48.3811 40.0637C48.8948 39.9355 49.2158 39.3586 49.0232 38.8458C48.959 38.3971 48.3811 38.0766 47.8674 38.2048Z" fill="#858A73"/>
<path d="M60.1316 73.0767H34.4474C33.9337 73.0767 33.4843 73.5254 33.4843 74.0382C33.4843 74.551 33.9337 74.9997 34.4474 74.9997H60.1316C60.6453 74.9997 61.0948 74.551 61.0948 74.0382C61.0948 73.5254 60.6453 73.0767 60.1316 73.0767Z" fill="#858A73"/>
</svg>
