<svg width="157" height="71" viewBox="0 0 157 71" fill="none" xmlns="http://www.w3.org/2000/svg">
<path d="M51.5417 63.6588V65.861C51.9035 66.7055 52.7629 67.3173 53.6786 67.3173C54.3456 67.3173 54.8884 67.0725 55.3292 66.5831C55.7701 66.0936 55.9962 65.482 55.9962 64.7599C55.9962 64.0382 55.7701 63.4262 55.3292 62.9491C54.8884 62.4598 54.3456 62.215 53.6786 62.215C52.7402 62.215 51.8924 62.8147 51.5417 63.6588ZM55.7474 62.6065C56.2561 63.2062 56.5163 63.9158 56.5163 64.7599C56.5163 65.6042 56.2561 66.3261 55.7474 66.9257C55.2386 67.5252 54.583 67.8312 53.769 67.8312C52.8194 67.8312 52.0732 67.4397 51.5417 66.6441V70.1313H51.033V61.848H51.5417V62.8757C52.0732 62.0926 52.8079 61.701 53.769 61.701C54.583 61.701 55.2386 62.007 55.7474 62.6065Z" fill="white"/>
<path d="M58.6529 61.8478H59.1618V67.6841H58.6529V61.8478ZM58.5965 59.4497C58.9695 59.009 59.614 59.7065 59.207 60.1105C58.8341 60.5508 58.1895 59.8535 58.5965 59.4497Z" fill="white"/>
<path d="M61.1061 67.6841V67.3046L64.8821 62.3495H61.3773V61.8478H65.6172V62.2394L61.8636 67.1824H65.798V67.6841H61.1061Z" fill="white"/>
<path d="M67.0076 67.6841V67.3046L70.7835 62.3495H67.2788V61.8478H71.5186V62.2394L67.765 67.1824H71.6994V67.6841H67.0076Z" fill="white"/>
<path d="M77.3861 66.1548V65.1881C76.7416 64.7356 76.0859 64.5031 75.4076 64.5031C74.2657 64.5031 73.5648 65.0657 73.5648 65.9102C73.5648 66.8523 74.3111 67.3171 75.2606 67.3171C76.165 67.3171 76.9451 66.7909 77.3861 66.1548ZM73.6439 67.3294C73.2369 66.9868 73.0334 66.5218 73.0334 65.9223C73.0334 65.3471 73.2482 64.8821 73.6666 64.5397C74.0962 64.185 74.6275 64.0135 75.2718 64.0135C76.0294 64.0135 76.7416 64.2216 77.3861 64.6496V63.879C77.3861 62.7533 76.6851 62.2148 75.4641 62.2148C74.8198 62.2148 74.2091 62.423 73.6327 62.8389V62.2762C74.1753 61.8968 74.8198 61.7011 75.5545 61.7011C76.9565 61.7011 77.8949 62.4107 77.8949 63.8301V66.4239C77.8949 66.9258 78.1209 67.2559 78.4826 67.2559C78.6069 67.2559 78.7088 67.2314 78.7994 67.1825V67.6354C78.6975 67.6964 78.5505 67.733 78.3584 67.733C77.8722 67.733 77.4765 67.3904 77.4313 66.7174C76.8435 67.4639 76.0746 67.8311 75.1137 67.8311C74.5482 67.8311 74.0622 67.6597 73.6439 67.3294Z" fill="white"/>
<path d="M88.4993 66.3384L85.345 63.047C84.9721 63.1694 84.6555 63.414 84.3728 63.781C84.0901 64.1482 83.9546 64.5886 83.9546 65.1146C83.9546 65.7753 84.1806 66.3138 84.6215 66.7174C85.0625 67.1214 85.6166 67.3171 86.2834 67.3171C87.1766 67.3171 87.9116 66.9868 88.4993 66.3384ZM88.4541 60.2817C87.8889 59.7557 87.2671 59.4865 86.6 59.4865C85.5712 59.4865 84.9154 60.0614 84.9154 60.9913C84.9154 61.5787 85.2208 62.1905 85.8426 62.8389L88.8159 65.9223C89.302 65.1758 89.5622 64.2581 89.596 63.1448H90.1048C90.0709 64.3807 89.7543 65.4327 89.1665 66.3017L90.5118 67.6841H89.7995L88.85 66.7054C88.1828 67.4518 87.3236 67.8311 86.2834 67.8311C85.526 67.8311 84.859 67.5865 84.2824 67.109C83.7171 66.6198 83.4344 65.9589 83.4344 65.1146C83.4344 64.4785 83.604 63.9525 83.9319 63.5241C84.2597 63.0959 84.6215 62.8022 85.0173 62.6432C84.5988 62.117 84.3955 61.5664 84.3955 60.9792C84.3955 60.3795 84.5988 59.8901 85.006 59.5231C85.4129 59.156 85.9217 58.9726 86.521 58.9726C87.2784 58.9726 87.9227 59.2049 88.4541 59.6576V60.2817Z" fill="white"/>
<path d="M96.0287 63.6588V65.861C96.3905 66.7055 97.2498 67.3173 98.1655 67.3173C98.8325 67.3173 99.3753 67.0725 99.8162 66.5831C100.257 66.0936 100.483 65.482 100.483 64.7599C100.483 64.0382 100.257 63.4262 99.8162 62.9491C99.3753 62.4598 98.8325 62.215 98.1655 62.215C97.2271 62.215 96.3793 62.8147 96.0287 63.6588ZM100.234 62.6065C100.743 63.2062 101.003 63.9158 101.003 64.7599C101.003 65.6042 100.743 66.3261 100.234 66.9257C99.7256 67.5252 99.0699 67.8312 98.2559 67.8312C97.3064 67.8312 96.5601 67.4397 96.0287 66.6441V70.1313H95.52V61.848H96.0287V62.8757C96.5601 62.0926 97.2948 61.701 98.2559 61.701C99.0699 61.701 99.7256 62.007 100.234 62.6065Z" fill="white"/>
<path d="M106.871 66.1548V65.1881C106.226 64.7356 105.571 64.5031 104.892 64.5031C103.75 64.5031 103.049 65.0657 103.049 65.9102C103.049 66.8523 103.796 67.3171 104.745 67.3171C105.65 67.3171 106.43 66.7909 106.871 66.1548ZM103.129 67.3294C102.722 66.9868 102.518 66.5218 102.518 65.9223C102.518 65.3471 102.733 64.8821 103.151 64.5397C103.581 64.185 104.112 64.0135 104.756 64.0135C105.514 64.0135 106.226 64.2216 106.871 64.6496V63.879C106.871 62.7533 106.17 62.2148 104.949 62.2148C104.304 62.2148 103.694 62.423 103.117 62.8389V62.2762C103.66 61.8968 104.304 61.7011 105.039 61.7011C106.441 61.7011 107.38 62.4107 107.38 63.8301V66.4239C107.38 66.9258 107.606 67.2559 107.967 67.2559C108.092 67.2559 108.193 67.2314 108.284 67.1825V67.6354C108.182 67.6964 108.035 67.733 107.843 67.733C107.357 67.733 106.961 67.3904 106.916 66.7174C106.328 67.4639 105.559 67.8311 104.598 67.8311C104.033 67.8311 103.547 67.6597 103.129 67.3294Z" fill="white"/>
<path d="M109.494 67.207V66.6073C110.138 67.0846 110.884 67.3171 111.71 67.3171C112.761 67.3171 113.439 66.8644 113.439 66.1669C113.439 65.8242 113.27 65.5797 112.942 65.3963C112.614 65.2127 112.32 65.1392 111.822 64.9922L111.596 64.9312C111.133 64.7966 110.862 64.7231 110.488 64.5397C110.002 64.2706 109.663 63.9157 109.663 63.2795C109.663 62.3128 110.421 61.7009 111.743 61.7009C112.535 61.7009 113.179 61.8845 113.688 62.2394V62.802C113.089 62.4105 112.456 62.2148 111.777 62.2148C110.726 62.2148 110.183 62.643 110.183 63.2795C110.183 63.573 110.341 63.8176 110.511 63.9646C110.59 64.0258 110.726 64.0991 110.895 64.1725C111.246 64.3193 111.37 64.3561 111.822 64.4662L112.456 64.6375C112.591 64.6742 112.772 64.7477 113.01 64.8457C113.247 64.9433 113.417 65.0412 113.518 65.1513C113.744 65.3594 113.959 65.7264 113.959 66.1793C113.959 66.6808 113.744 67.0846 113.315 67.3904C112.897 67.6841 112.365 67.8311 111.721 67.8311C110.816 67.8311 109.934 67.5496 109.494 67.207Z" fill="white"/>
<path d="M116.56 66.1548V62.3495H115.18V61.8478H116.56V59.9636H117.068V61.8478H119.081V62.3495H117.068V66.0078C117.068 66.9499 117.374 67.3171 118.086 67.3171C118.402 67.3171 118.708 67.2314 119.001 67.048V67.5619C118.764 67.7455 118.425 67.8311 117.961 67.8311C117.023 67.8311 116.56 67.1949 116.56 66.1548Z" fill="white"/>
<path d="M124.881 66.1548V65.1881C124.236 64.7356 123.581 64.5031 122.902 64.5031C121.76 64.5031 121.059 65.0657 121.059 65.9102C121.059 66.8523 121.806 67.3171 122.755 67.3171C123.66 67.3171 124.44 66.7909 124.881 66.1548ZM121.138 67.3294C120.731 66.9868 120.528 66.5218 120.528 65.9223C120.528 65.3471 120.743 64.8821 121.161 64.5397C121.591 64.185 122.122 64.0135 122.766 64.0135C123.524 64.0135 124.236 64.2216 124.881 64.6496V63.879C124.881 62.7533 124.18 62.2148 122.959 62.2148C122.314 62.2148 121.704 62.423 121.127 62.8389V62.2762C121.67 61.8968 122.314 61.7011 123.049 61.7011C124.451 61.7011 125.389 62.4107 125.389 63.8301V66.4239C125.389 66.9258 125.615 67.2559 125.977 67.2559C126.102 67.2559 126.203 67.2314 126.294 67.1825V67.6354C126.192 67.6964 126.045 67.733 125.853 67.733C125.367 67.733 124.971 67.3904 124.926 66.7174C124.338 67.4639 123.569 67.8311 122.608 67.8311C122.043 67.8311 121.557 67.6597 121.138 67.3294Z" fill="white"/>
<path d="M135.655 66.5952C136.096 66.1059 136.322 65.4941 136.322 64.7722C136.322 64.0503 136.096 63.4386 135.655 62.949C135.214 62.4598 134.671 62.2148 134.004 62.2148C133.088 62.2148 132.229 62.8268 131.867 63.6711V65.8734C132.218 66.7176 133.066 67.3173 134.004 67.3173C134.671 67.3173 135.214 67.0723 135.655 66.5952ZM131.867 66.6564V67.6843H131.359V59.1193H131.867V62.888C132.399 62.0926 133.145 61.7011 134.095 61.7011C134.909 61.7011 135.564 62.0069 136.073 62.6064C136.582 63.206 136.842 63.9279 136.842 64.7722C136.842 65.6165 136.582 66.3384 136.073 66.9379C135.564 67.5374 134.909 67.8311 134.095 67.8311C133.134 67.8311 132.399 67.4395 131.867 66.6564Z" fill="white"/>
<path d="M142.71 66.1548V65.1881C142.065 64.7356 141.409 64.5031 140.731 64.5031C139.589 64.5031 138.888 65.0657 138.888 65.9102C138.888 66.8523 139.634 67.3171 140.584 67.3171C141.488 67.3171 142.269 66.7909 142.71 66.1548ZM138.967 67.3294C138.56 66.9868 138.357 66.5218 138.357 65.9223C138.357 65.3471 138.572 64.8821 138.99 64.5397C139.419 64.185 139.951 64.0135 140.595 64.0135C141.353 64.0135 142.065 64.2216 142.71 64.6496V63.879C142.71 62.7533 142.009 62.2148 140.787 62.2148C140.143 62.2148 139.533 62.423 138.956 62.8389V62.2762C139.499 61.8968 140.143 61.7011 140.878 61.7011C142.28 61.7011 143.218 62.4107 143.218 63.8301V66.4239C143.218 66.9258 143.444 67.2559 143.806 67.2559C143.931 67.2559 144.032 67.2314 144.122 67.1825V67.6354C144.021 67.6964 143.874 67.733 143.682 67.733C143.196 67.733 142.8 67.3904 142.755 66.7174C142.167 67.4639 141.398 67.8311 140.437 67.8311C139.872 67.8311 139.386 67.6597 138.967 67.3294Z" fill="white"/>
<path d="M145.818 67.6841V61.8478H146.327V63.0712C146.723 62.3249 147.559 61.7133 148.509 61.7009V62.2639C148 62.2639 147.548 62.4229 147.164 62.741C146.779 63.047 146.496 63.414 146.327 63.8176V67.6841H145.818Z" fill="white"/>
<path d="M18.5154 41.6535C17.8664 41.829 17.2177 41.9608 16.6089 42.0921C16.4468 42.1363 16.3658 42.1801 16.325 42.3118V42.4874C16.5281 43.2337 16.5684 44.0237 16.6089 44.9454C17.2985 43.8039 17.9475 42.7945 18.5559 41.7848C18.5154 41.7412 18.5154 41.6973 18.5154 41.6535ZM27.9649 20.1024C25.6127 20.4093 23.1793 20.7606 20.7458 21.2872C17.0145 22.0335 13.2834 22.9552 9.63331 24.3598C7.72736 25.0619 5.86173 25.8962 4.07724 27.0372C3.46869 27.4325 2.81999 27.871 2.33308 28.398C2.00864 28.7053 1.84651 29.0124 1.80602 29.3197C1.7247 29.627 1.80602 29.9343 2.04913 30.2853C2.08997 30.4171 2.21161 30.5045 2.29259 30.6364C2.65769 30.9873 3.02261 31.2946 3.46869 31.6019C4.76643 32.392 6.06434 33.0506 7.40292 33.7526C8.90328 34.4549 10.3228 35.2011 11.6612 36.1667C13.162 37.2202 14.5407 38.4492 15.4328 40.161C15.5546 40.3803 15.6763 40.4245 15.8384 40.4245C15.9602 40.4245 16.0412 40.3803 16.1629 40.3803C17.258 40.1172 18.3938 39.8537 19.4885 39.6344C19.8536 39.5902 20.0562 39.4148 20.2186 39.1075C21.1111 37.703 22.0032 36.2983 22.8549 34.938C25.775 30.3291 28.7762 25.8081 31.8987 21.331C32.3045 20.7606 32.7101 20.1898 33.1157 19.5754C31.3314 19.7071 29.6684 19.8827 27.9649 20.1024ZM25.1666 38.4931C27.9649 37.9665 30.7635 37.4399 33.5213 37.0884L35.63 36.8253H36.0761C36.5225 36.8691 36.7656 37.1764 36.7251 37.6592C36.644 38.0543 36.3195 38.4492 35.8735 38.5809C35.3869 38.7127 34.9408 38.7564 34.4944 38.8002C32.1827 39.0637 29.9523 39.4148 27.6406 39.8537C25.5315 40.249 23.4228 40.6876 21.3137 41.0827C20.9489 41.1266 20.7458 41.302 20.5023 41.6535C18.9206 44.1992 17.3798 46.7011 15.8384 49.2029C15.6763 49.5102 15.5142 49.8173 15.3923 50.1246C14.5407 52.363 13.3646 54.4259 12.1073 56.4892C10.6473 58.903 9.06559 61.2294 7.36209 63.512C7.07814 63.9067 6.75388 64.2578 6.46993 64.653C6.3078 64.8723 6.10518 65.0483 5.86173 65.1357C5.69942 65.2238 5.57778 65.2676 5.41547 65.2676C5.00989 65.2676 4.72594 64.9603 4.76643 64.4775L4.80727 64.2578C4.84776 64.0386 4.92873 63.8193 5.05038 63.5996C5.57778 62.6339 6.1455 61.7122 6.75388 60.7466C9.10608 56.9719 11.4585 53.1973 13.8107 49.4664C14.1759 48.8956 14.2972 48.2812 14.4597 47.7104L14.5812 47.14C14.9059 45.7355 14.9059 44.4185 14.5812 43.1456C14.4597 42.7509 14.419 42.6191 14.2164 42.6191C14.1351 42.6191 13.973 42.6629 13.7702 42.7067C10.8907 43.3211 7.97064 44.0237 5.05038 44.7258C4.27986 44.9454 3.4282 45.0771 2.61702 45.2528C2.53605 45.2528 2.41423 45.2964 2.29259 45.2964H2.21161C1.76553 45.2964 1.44092 44.9454 1.48159 44.5065V44.3747C1.60305 43.9357 1.96815 43.5846 2.41423 43.453C3.10376 43.3211 3.83379 43.1895 4.48248 43.058C7.11898 42.4436 9.75512 41.829 12.3508 41.2146C12.7564 41.1266 13.1211 41.0827 13.5672 40.8635C13.3646 40.4683 13.0806 40.1172 12.8372 39.8099C11.9855 38.932 11.0934 38.1858 10.0794 37.5273C8.4977 36.474 6.79437 35.6401 5.05038 34.762C4.03641 34.2356 2.98212 33.709 1.96815 33.0064C1.44092 32.5675 0.873031 32.1289 0.467443 31.5143C0.0622046 30.8557 -0.1001 30.1098 0.0622049 29.3197C0.224335 28.6611 0.548596 28.0465 1.11649 27.3883C1.80602 26.5982 2.65769 25.9836 3.50953 25.4134C4.88825 24.5353 6.26731 23.8771 7.68687 23.3063C11.0124 21.9018 14.3381 20.8925 17.7042 20.1024C20.4215 19.4878 23.1388 18.9608 25.8966 18.5661C28.0462 18.2588 30.1549 17.9953 32.3045 17.8198C32.9131 17.776 33.5618 17.688 34.1701 17.6443C34.4539 17.6002 34.6569 17.5125 34.8192 17.249C35.3461 16.547 35.833 15.8887 36.36 15.2299C36.644 14.8352 36.9686 14.4399 37.374 14.0889C37.6578 13.8697 37.9012 13.7816 38.1447 13.7816C38.4286 13.7816 38.6313 13.9133 38.7126 14.1768C38.8342 14.3524 38.8342 14.6155 38.7936 14.879C38.6717 15.4934 38.2257 16.108 37.7391 16.2835C37.2525 16.459 37.0901 16.8981 36.7656 17.337C36.8874 17.3809 37.0091 17.3809 37.1309 17.3809H37.5365C38.3473 17.2932 39.1587 17.249 39.9695 17.1616C41.3487 17.0736 42.7278 16.9859 44.1065 16.8981C44.7147 16.8543 45.3638 16.8543 46.0533 16.7663C46.8643 16.6786 47.716 16.6786 48.5273 16.6346L54.3268 16.3715C55.3811 16.3273 56.4359 16.3715 57.4902 16.2835C58.7476 16.1959 59.9641 16.1959 61.181 16.1959C62.4381 16.1959 63.6548 16.1959 64.9119 16.2397C66.8184 16.2397 68.6432 16.3273 70.4683 16.7224C70.6305 16.7663 70.8331 16.8101 70.9957 16.8981C71.32 17.0297 71.4418 17.3809 71.401 17.7318C71.3605 17.776 71.32 17.8636 71.32 17.9515C71.1579 18.3464 70.7928 18.6537 70.3465 18.6537H70.2657C69.7788 18.6099 69.2922 18.4781 68.7648 18.3906C67.7913 18.2146 66.7775 18.1271 65.7231 18.1271C64.5067 18.0833 63.2897 18.0833 62.0731 18.0833C60.4101 18.0833 58.7476 18.0833 57.0846 18.1271C55.0567 18.1709 53.0694 18.2588 51.0417 18.3464C49.6629 18.4342 48.2839 18.478 46.8643 18.5661C45.1203 18.6537 43.336 18.7415 41.5514 18.8734C39.6047 19.005 37.6578 19.1807 35.7113 19.3119C35.3461 19.3119 35.1031 19.4878 34.9 19.8389C33.3996 21.9454 31.8987 24.0525 30.4795 26.1593C27.7622 30.2414 25.0854 34.3234 22.4898 38.4931C22.4088 38.6689 22.2872 38.8002 22.2058 39.0637C23.2198 38.8882 24.2336 38.6689 25.1666 38.4931Z" fill="white"/>
<path d="M37.8547 45.6476C37.8956 45.6476 37.9766 45.6038 38.0982 45.56C38.3417 45.4721 38.5038 45.3845 38.7064 45.2529C39.1933 44.9456 39.6394 44.5941 40.0452 44.1993C41.3021 43.1458 42.519 42.0922 43.6951 41.039C43.9791 40.8194 44.3033 40.5563 44.5873 40.2928C44.6686 40.2492 44.7089 40.205 44.7494 40.1173C44.7494 40.0731 44.7089 39.9857 44.6686 39.9418C44.3438 39.5904 43.9791 39.3711 43.4921 39.3711C43.2895 39.3711 43.0867 39.4149 42.8434 39.5027C42.6811 39.5904 42.4377 39.6345 42.2755 39.7662C40.6939 40.6001 39.5178 41.8729 38.6256 43.4092C38.2603 43.98 38.0169 44.5502 37.8547 45.0772L37.7738 45.3403C37.7738 45.56 37.7738 45.6476 37.8547 45.6476ZM47.832 44.4628C49.3325 43.2338 50.7924 42.0048 52.3741 40.9512C52.5364 40.8194 52.7393 40.6877 52.9419 40.6001C53.1041 40.5121 53.2259 40.5121 53.3475 40.5121C53.5906 40.5121 53.7936 40.6439 53.9154 40.8636C53.9962 40.995 53.9962 41.1709 53.9559 41.3463C53.9154 41.5656 53.7936 41.7849 53.6315 41.9609C53.4694 42.1364 53.307 42.268 53.1041 42.3995C51.8877 43.2338 50.6707 44.1993 49.4946 45.1648C48.7646 45.7356 48.0751 46.35 47.3046 46.9204C46.899 47.2277 46.4124 47.4912 45.9255 47.6667C45.6824 47.7547 45.4794 47.7983 45.2768 47.7983C44.5873 47.7983 44.1817 47.3156 44.1412 46.4819C44.1412 46.2184 44.1817 45.9549 44.2225 45.6476C44.3033 45.2529 44.4656 44.8137 44.6277 44.4186C45.0738 43.4092 45.6415 42.4437 46.1689 41.4782C46.2908 41.2583 46.4124 41.039 46.4934 40.7755C46.3716 40.8636 46.2503 40.9512 46.1285 41.0828C44.5063 42.4875 42.8838 43.892 41.3021 45.2965C40.5317 45.9111 39.8017 46.5255 38.9904 47.0085C38.6256 47.2277 38.2198 47.4032 37.7738 47.5349C37.6116 47.5791 37.4495 47.6229 37.2869 47.6229C36.557 47.6229 35.9891 47.0521 36.03 46.0866C35.9891 45.8231 36.03 45.56 36.1109 45.2529C36.1516 44.9894 36.2326 44.6821 36.3544 44.4186C37.5303 41.5218 39.4364 39.283 42.1942 37.9228C42.803 37.6593 43.4112 37.4838 43.9791 37.4838C44.1412 37.4838 44.3033 37.4838 44.4656 37.5274C44.9117 37.6155 45.3173 37.8786 45.6415 38.142C45.885 38.3617 46.0876 38.6248 46.3716 38.6248H46.4124C46.6964 38.6248 46.9803 38.2737 47.2642 38.0544C47.7103 37.7031 48.0751 37.352 48.5211 37.0447C48.7646 36.913 49.0081 36.7376 49.292 36.6937C49.3728 36.6937 49.4541 36.6499 49.4946 36.6499C50.022 36.6499 50.3463 37.0885 50.2246 37.7031C50.1437 38.0544 49.9812 38.3617 49.8189 38.669C49.2512 39.4591 48.7646 40.2492 48.278 41.039C47.548 42.268 46.7772 43.4969 46.2094 44.8137C46.1689 44.9456 46.0876 45.121 46.0473 45.3403C46.0473 45.4721 46.0068 45.6038 46.0068 45.7793C46.6963 45.3845 47.2642 44.9014 47.832 44.4628Z" fill="white"/>
<path d="M54.1159 41.9167C55.292 40.6 56.5495 39.3272 57.8472 38.142C58.1311 37.9227 58.4151 37.6592 58.7393 37.5276C58.9828 37.3957 59.2259 37.3081 59.4289 37.3081C59.9968 37.3081 60.2805 37.7909 60.1181 38.5371L60.0776 38.7566C59.9968 39.1517 59.8345 39.5903 59.7128 39.9856L59.591 40.4245C59.5507 40.8635 59.6315 40.9949 60.0373 41.0391C60.402 41.0391 60.7671 40.9511 61.132 40.9073C61.9432 40.7318 62.7546 40.6 63.6062 40.3365C63.7277 40.2929 63.8493 40.2929 64.0115 40.2929H64.0928C64.4172 40.2929 64.6202 40.5122 64.6607 40.8193C64.701 40.9511 64.701 41.0391 64.6607 41.1708C64.6202 41.3901 64.4984 41.6094 64.2549 41.829C64.0928 41.9609 63.9307 42.0485 63.7277 42.0921C62.349 42.4874 61.0106 42.7947 59.672 42.8384H59.5507C58.4151 42.8384 57.6037 42.1801 57.8064 40.6876L57.8472 40.4684C57.6442 40.4684 57.5632 40.6 57.4819 40.7318C55.9002 42.2682 54.4807 43.8919 53.0616 45.6037C52.4529 46.35 51.8447 47.0962 51.196 47.8421C51.0334 48.0619 50.8307 48.3249 50.5873 48.5447C50.3033 48.8078 50.0196 48.9395 49.7356 48.9395C49.6141 48.9395 49.4925 48.8956 49.3709 48.8518C49.0869 48.6322 48.9651 48.2812 49.0464 47.8421L49.0869 47.7104C49.2086 47.3157 49.3709 46.9646 49.5735 46.5692C50.6686 44.243 51.926 41.9167 53.3451 39.6783C53.6698 39.1075 54.0346 38.4931 54.4807 37.9665C54.6838 37.703 54.8864 37.4399 55.2107 37.2641C55.4138 37.1764 55.6165 37.0884 55.7786 37.0884C56.1032 37.0884 56.3871 37.2641 56.5086 37.6154C56.5898 37.7909 56.5898 38.0103 56.5495 38.1858C56.4681 38.4493 56.2655 38.7566 55.9407 38.932C55.6976 39.0637 55.576 39.1517 55.4138 39.371C54.7646 40.3365 54.1564 41.3463 53.5885 42.3556C53.5885 42.3556 53.629 42.3994 53.5885 42.4874C53.832 42.2682 53.9943 42.0921 54.1159 41.9167Z" fill="white"/>
<path d="M67.7817 35.3329L67.8222 35.1574C67.9034 34.7183 68.3088 34.3235 68.7957 34.1481C68.9173 34.1039 69.0392 34.0601 69.1605 34.0601C69.4852 34.0601 69.7284 34.2793 69.85 34.5866C69.9313 34.7183 69.9313 34.8939 69.8905 35.0256C69.85 35.2453 69.7283 35.4209 69.6069 35.5964C69.2821 35.9037 68.8765 36.0791 68.5522 36.123C68.0252 36.123 67.7412 35.7718 67.7817 35.3329ZM61.9414 45.56C61.9822 45.2965 62.0227 45.0772 62.0632 44.8137C62.1848 44.1993 62.4283 43.6285 62.6714 43.0139C63.4014 41.3021 64.3749 39.6784 65.5105 38.142C65.7945 37.7909 66.0782 37.4836 66.4027 37.2201C66.6866 37.0009 66.9704 36.913 67.2138 36.913C67.4165 36.913 67.6196 37.0009 67.7817 37.1765C67.9844 37.3958 68.0657 37.7031 67.9844 37.9664C67.9034 38.3617 67.6196 38.7128 67.2543 38.8445C66.9704 38.8883 66.8083 39.0638 66.6461 39.283C65.551 40.7755 64.6184 42.3119 63.9691 44.0236C63.9288 44.2429 63.8479 44.4628 63.807 44.6383C63.7665 44.8575 63.726 45.0772 63.726 45.2965C63.6449 45.7356 63.7665 45.8673 64.1723 45.9111H64.3344C64.6992 45.9111 65.0644 45.7356 65.4295 45.56C66.3217 45.121 67.1327 44.5502 67.9034 43.9358C69.2418 42.9265 70.5395 41.9167 71.8778 40.9074C72.0807 40.7755 72.2835 40.6001 72.5268 40.4684C72.6891 40.3804 72.8512 40.3366 72.9731 40.3366C73.2165 40.3366 73.4191 40.4684 73.5408 40.6877C73.6217 40.8194 73.6626 41.039 73.6217 41.2583C73.5408 41.434 73.4594 41.6536 73.2973 41.8291C73.1757 41.9609 73.0539 42.0484 72.8917 42.1802C71.1882 43.4531 69.4852 44.7699 67.7817 46.0427C67.0517 46.5693 66.3622 47.0083 65.551 47.4032C64.9831 47.6229 64.4561 47.7983 63.6854 47.7983C62.5093 47.7983 61.8606 47.0083 61.9414 45.56Z" fill="white"/>
<path d="M73.2555 43.9356C75.4456 41.8289 77.7168 39.8536 80.2311 38.1857C81.0423 37.6591 81.8945 37.1763 82.7867 36.8252C83.2327 36.6497 83.719 36.5617 84.1657 36.5617C84.9762 36.6055 85.3823 37.1763 85.3006 38.098C85.1797 38.6246 84.9362 39.1074 84.7336 39.5901C84.2867 40.5561 83.8006 41.478 83.3945 42.4435C83.3137 42.6628 83.2327 42.8821 83.1919 43.1017L83.1518 43.409C83.1111 43.7602 83.1919 43.8918 83.5163 43.8918C83.8814 43.8918 84.2467 43.8038 84.6118 43.6725C85.504 43.409 86.3961 42.9701 87.2476 42.619C88.5858 42.0484 89.8839 41.478 91.1815 40.9072C91.344 40.8192 91.5058 40.8192 91.6276 40.8192C91.9525 40.8192 92.1553 40.951 92.277 41.2583C92.3171 41.3899 92.3171 41.5218 92.277 41.6973C92.2361 42.0046 91.9525 42.3555 91.5874 42.5311C91.1005 42.7946 90.6136 43.0139 90.0867 43.2336L85.7876 45.077C85.017 45.3843 84.2867 45.6036 83.5572 45.7354C83.4354 45.7354 83.2729 45.7792 83.1111 45.7792C81.5289 45.7792 81.1641 44.4626 81.4481 43.2336C81.5697 42.4873 81.8945 41.7411 82.2188 41.039L83.0703 39.327C83.1518 39.1516 83.2729 38.9757 83.3137 38.8001L83.3546 38.7126C83.3546 38.5808 83.3546 38.493 83.2327 38.493C83.1919 38.493 83.1518 38.537 83.1111 38.537C82.8268 38.6246 82.5024 38.7564 82.2188 38.9319C81.0828 39.5463 79.988 40.3364 78.9334 41.1265C76.7838 42.7066 74.8777 44.5064 73.0121 46.3498C72.282 47.0521 71.5925 47.7545 70.8222 48.4127C70.5382 48.632 70.2543 48.8517 69.9298 48.9393C69.7677 48.9835 69.6461 49.0273 69.5243 49.0273C69.1595 49.0273 68.8756 48.7639 68.7942 48.3689C68.7537 48.1054 68.7537 47.842 68.8347 47.6227C68.8347 47.4472 68.8756 47.3156 68.9565 47.1837C69.3216 46.1744 69.8082 45.2085 70.3356 44.2429C71.6333 41.8289 73.0121 39.5027 74.6751 37.308C74.8777 37.0008 75.0807 36.7374 75.3238 36.5181C75.6077 36.2546 75.8917 36.1228 76.1351 36.1228C76.2568 36.1228 76.3786 36.1666 76.4999 36.2108C76.9463 36.3862 77.1084 36.7374 77.0678 37.2639V37.3956C76.9868 37.7029 76.6624 38.0542 76.2973 38.1857C75.9728 38.2737 75.6889 38.537 75.5267 38.8443C74.026 40.951 72.6876 43.1456 71.5117 45.4281L71.4712 45.6036C72.0794 45.077 72.6473 44.5064 73.2555 43.9356Z" fill="white"/>
<path d="M96.5323 37.7029C95.5184 38.0102 94.748 38.7564 94.0585 39.6343C95.0323 39.2392 95.8836 38.6688 96.5323 37.7029ZM92.4367 45.3403C92.5576 45.3403 92.7201 45.3403 92.9229 45.2526C93.6124 44.9892 94.3019 44.5064 94.9105 44.0236C96.1271 43.0581 97.4245 42.0922 98.6418 41.1707C99.047 40.9072 99.3714 40.6437 99.7365 40.4244C99.9392 40.2928 100.142 40.2047 100.345 40.2047C100.466 40.2047 100.629 40.2489 100.751 40.3802C100.953 40.5562 100.994 40.8193 100.953 41.0828C100.912 41.2583 100.831 41.4338 100.67 41.6092C100.548 41.7849 100.385 41.9165 100.264 42.0045C98.6009 43.1894 96.9784 44.5064 95.3157 45.7354C94.748 46.1744 94.1393 46.5693 93.4505 46.8764C93.0044 47.0963 92.5175 47.2275 92.0714 47.2275C91.8688 47.2275 91.6654 47.1837 91.4628 47.1399C90.4087 46.8764 90.0028 46.0865 89.9619 44.9012C89.9619 44.5502 90.0028 44.1553 90.0838 43.804C90.2054 43.3212 90.3272 42.8384 90.5298 42.3555C91.3819 40.2047 92.7201 38.4053 94.5454 36.9128C95.2349 36.3424 95.9644 35.9473 96.8166 35.7718C96.9784 35.728 97.1409 35.728 97.2627 35.728C98.1957 35.728 98.6418 36.3862 98.4385 37.3956C98.3983 37.5712 98.3166 37.7471 98.2358 37.9664C98.0739 38.3615 97.8304 38.7126 97.5871 39.0199C96.614 40.1609 95.5184 40.951 94.221 41.478C93.8559 41.6092 93.4906 41.6972 93.1663 41.6972H92.8419C92.6393 41.6972 92.5576 41.8291 92.4367 42.0045C92.2333 42.4873 92.0305 42.9701 91.9089 43.4528L91.7471 44.3309C91.6654 44.9892 91.9497 45.3403 92.4367 45.3403Z" fill="white"/>
<path d="M105.17 35.2013C105.332 35.1575 105.535 35.0697 105.697 35.0258C107.725 34.2358 109.752 33.1822 111.74 31.9974C115.918 29.4075 119.811 26.2474 123.542 22.8237C126.827 19.7512 129.909 16.3717 132.627 12.7725C134.087 10.7972 135.466 8.7781 136.561 6.58355C137.007 5.74966 137.331 4.87177 137.534 3.99368C137.575 3.7744 137.615 3.55474 137.615 3.33545C137.736 2.45737 137.372 1.93097 136.561 1.88715H136.277C136.074 1.88715 135.83 1.88715 135.628 1.93097C134.655 2.15063 133.763 2.54538 132.87 3.02815C131.126 3.95005 129.585 5.17907 128.043 6.45191C125.083 8.95376 122.406 11.7627 119.892 14.7037C114.66 20.673 110.077 27.1253 105.819 33.7968C105.575 34.2358 105.332 34.6747 105.007 35.1575C105.089 35.2013 105.129 35.2013 105.17 35.2013ZM137.129 8.90994C135.182 12.2019 132.83 15.1865 130.315 18.0835C127.76 21.0239 125.043 23.7456 122.123 26.2474C118.999 28.9686 115.674 31.5146 112.186 33.6212C109.591 35.2013 106.914 36.4741 104.115 37.352C103.669 37.5277 103.345 37.7474 103.101 38.2301C101.641 40.6878 100.222 43.1458 98.9239 45.6915C97.9916 47.4475 97.2612 49.2469 96.6935 51.0905C96.6125 51.354 96.5315 51.6171 96.4907 51.8806C96.4099 52.2315 96.3691 52.6268 96.3691 52.9778C96.4099 53.5485 96.5717 53.812 96.9776 53.812C97.0987 53.812 97.2612 53.7678 97.4237 53.724C97.9916 53.5485 98.5595 53.2412 99.0864 52.9339C100.627 51.9684 102.087 50.8712 103.507 49.7739C105.819 47.9741 108.049 46.0868 110.442 44.5067C112.673 43.0142 114.944 41.7852 117.256 40.7758C117.499 40.6878 117.702 40.6003 117.904 40.6003C118.27 40.6003 118.513 40.7758 118.594 41.1267C118.594 41.2586 118.594 41.3466 118.553 41.4782C118.513 41.7413 118.351 42.0048 118.107 42.1803C117.904 42.3121 117.743 42.3996 117.499 42.4876C114.619 43.8042 111.78 45.3846 109.145 47.4033L104.765 50.827C102.939 52.2757 101.114 53.6802 99.1673 54.7776C98.4778 55.1723 97.7481 55.4796 97.0178 55.6115C96.856 55.6553 96.6935 55.6553 96.5315 55.6553C95.6795 55.6553 94.99 55.1723 94.7465 54.2948C94.5439 53.5485 94.5848 52.7585 94.7465 51.9684L94.8282 51.6611C95.4361 49.2469 96.45 46.9647 97.6263 44.726C98.7213 42.5756 99.9379 40.4685 101.155 38.3618C101.317 38.1421 101.398 37.9228 101.439 37.7474C101.479 37.6593 101.479 37.5715 101.479 37.4839V37.2642C101.56 36.9131 101.804 36.6058 102.087 36.4303C102.453 36.211 102.655 35.9037 102.858 35.5528C105.616 31.0755 108.495 26.774 111.618 22.5166C114.376 18.7419 117.377 15.0546 120.541 11.5873C122.488 9.43653 124.556 7.3298 126.746 5.44255C128.652 3.81822 130.599 2.3261 132.749 1.22873C133.965 0.570114 135.182 0.0873489 136.439 -0.000289917H136.763C138.467 -0.000289917 139.643 1.00907 139.359 3.33545L139.237 3.99368C138.872 5.70566 138.062 7.3298 137.129 8.90994Z" fill="white"/>
<path d="M122.769 35.2013C122.931 35.1575 123.134 35.0697 123.296 35.0258C125.323 34.2358 127.351 33.1822 129.339 31.9974C133.516 29.4075 137.409 26.2474 141.141 22.8237C144.426 19.7512 147.508 16.3717 150.226 12.7725C151.686 10.7972 153.065 8.7781 154.16 6.58355C154.606 5.74966 154.93 4.87177 155.132 3.99368C155.173 3.7744 155.213 3.55474 155.213 3.33545C155.335 2.45737 154.971 1.93097 154.16 1.88715H153.875C153.673 1.88715 153.429 1.88715 153.227 1.93097C152.253 2.15063 151.361 2.54538 150.469 3.02815C148.725 3.95005 147.184 5.17907 145.642 6.45191C142.682 8.95376 140.005 11.7627 137.491 14.7037C132.259 20.673 127.676 27.1253 123.417 33.7968C123.174 34.2358 122.931 34.6747 122.606 35.1575C122.688 35.2013 122.728 35.2013 122.769 35.2013ZM154.727 8.90994C152.78 12.2019 150.428 15.1865 147.913 18.0835C145.359 21.0239 142.641 23.7456 139.721 26.2474C136.598 28.9686 133.273 31.5146 129.785 33.6212C127.189 35.2013 124.513 36.4741 121.714 37.352C121.268 37.5277 120.943 37.7474 120.7 38.2301C119.24 40.6878 117.821 43.1458 116.523 45.6915C115.59 47.4475 114.86 49.2469 114.292 51.0905C114.211 51.354 114.13 51.6171 114.089 51.8806C114.009 52.2315 113.968 52.6268 113.968 52.9778C114.009 53.5485 114.17 53.812 114.576 53.812C114.697 53.812 114.86 53.7678 115.022 53.724C115.59 53.5485 116.158 53.2412 116.685 52.9339C118.226 51.9684 119.686 50.8712 121.106 49.7739C123.417 47.9741 125.648 46.0868 128.041 44.5067C130.271 43.0142 132.542 41.7852 134.854 40.7758C135.098 40.6878 135.301 40.6003 135.503 40.6003C135.868 40.6003 136.112 40.7758 136.193 41.1267C136.193 41.2586 136.193 41.3466 136.152 41.4782C136.112 41.7413 135.949 42.0048 135.706 42.1803C135.503 42.3121 135.341 42.3996 135.098 42.4876C132.218 43.8042 129.379 45.3846 126.743 47.4033L122.363 50.827C120.538 52.2757 118.713 53.6802 116.766 54.7776C116.077 55.1723 115.347 55.4796 114.616 55.6115C114.455 55.6553 114.292 55.6553 114.13 55.6553C113.278 55.6553 112.589 55.1723 112.345 54.2948C112.143 53.5485 112.183 52.7585 112.345 51.9684L112.427 51.6611C113.035 49.2469 114.049 46.9647 115.225 44.726C116.32 42.5756 117.537 40.4685 118.754 38.3618C118.915 38.1421 118.996 37.9228 119.037 37.7474C119.078 37.6593 119.078 37.5715 119.078 37.4839V37.2642C119.159 36.9131 119.403 36.6058 119.686 36.4303C120.051 36.211 120.254 35.9037 120.456 35.5528C123.215 31.0755 126.094 26.774 129.217 22.5166C131.975 18.7419 134.976 15.0546 138.14 11.5873C140.086 9.43653 142.154 7.3298 144.345 5.44255C146.251 3.81822 148.198 2.3261 150.347 1.22873C151.564 0.570114 152.78 0.0873489 154.038 -0.000289917H154.362C156.065 -0.000289917 157.241 1.00907 156.958 3.33545L156.836 3.99368C156.471 5.70566 155.66 7.3298 154.727 8.90994Z" fill="white"/>
<path d="M134.162 45.6476C134.203 45.6476 134.284 45.6038 134.406 45.56C134.649 45.4721 134.811 45.3845 135.013 45.2529C135.5 44.9456 135.946 44.5941 136.353 44.1993C137.609 43.1458 138.826 42.0922 140.002 41.039C140.286 40.8194 140.611 40.5563 140.894 40.2928C140.976 40.2492 141.016 40.205 141.057 40.1173C141.057 40.0731 141.016 39.9857 140.976 39.9418C140.651 39.5904 140.286 39.3711 139.799 39.3711C139.597 39.3711 139.394 39.4149 139.151 39.5027C138.988 39.5904 138.745 39.6345 138.583 39.7662C137.001 40.6001 135.825 41.8729 134.933 43.4092C134.567 43.98 134.325 44.5502 134.162 45.0772L134.081 45.3403C134.081 45.56 134.081 45.6476 134.162 45.6476ZM144.139 44.4628C145.64 43.2338 147.099 42.0048 148.681 40.9512C148.844 40.8194 149.046 40.6877 149.249 40.6001C149.411 40.5121 149.533 40.5121 149.655 40.5121C149.898 40.5121 150.101 40.6439 150.223 40.8636C150.304 40.995 150.304 41.1709 150.263 41.3463C150.223 41.5656 150.101 41.7849 149.938 41.9609C149.777 42.1364 149.614 42.268 149.411 42.3995C148.195 43.2338 146.978 44.1993 145.802 45.1648C145.072 45.7356 144.382 46.35 143.612 46.9204C143.206 47.2277 142.719 47.4912 142.232 47.6667C141.99 47.7547 141.786 47.7983 141.584 47.7983C140.894 47.7983 140.489 47.3156 140.448 46.4819C140.448 46.2184 140.489 45.9549 140.53 45.6476C140.611 45.2529 140.772 44.8137 140.935 44.4186C141.381 43.4092 141.949 42.4437 142.476 41.4782C142.598 41.2583 142.719 41.039 142.8 40.7755C142.679 40.8636 142.558 40.9512 142.436 41.0828C140.813 42.4875 139.191 43.892 137.609 45.2965C136.839 45.9111 136.109 46.5255 135.298 47.0085C134.933 47.2277 134.527 47.4032 134.081 47.5349C133.919 47.5791 133.757 47.6229 133.594 47.6229C132.864 47.6229 132.296 47.0521 132.337 46.0866C132.296 45.8231 132.337 45.56 132.418 45.2529C132.459 44.9894 132.54 44.6821 132.661 44.4186C133.838 41.5218 135.744 39.283 138.501 37.9228C139.11 37.6593 139.719 37.4838 140.286 37.4838C140.448 37.4838 140.611 37.4838 140.772 37.5274C141.219 37.6155 141.625 37.8786 141.949 38.142C142.192 38.3617 142.395 38.6248 142.679 38.6248H142.719C143.004 38.6248 143.287 38.2737 143.571 38.0544C144.018 37.7031 144.382 37.352 144.828 37.0447C145.072 36.913 145.315 36.7376 145.599 36.6937C145.68 36.6937 145.761 36.6499 145.802 36.6499C146.329 36.6499 146.653 37.0885 146.532 37.7031C146.451 38.0544 146.288 38.3617 146.126 38.669C145.559 39.4591 145.072 40.2492 144.585 41.039C143.855 42.268 143.085 43.4969 142.517 44.8137C142.476 44.9456 142.395 45.121 142.354 45.3403C142.354 45.4721 142.314 45.6038 142.314 45.7793C143.004 45.3845 143.571 44.9014 144.139 44.4628Z" fill="white"/>
</svg>
