<svg width="158" height="70" viewBox="0 0 158 70" fill="none" xmlns="http://www.w3.org/2000/svg">
<path d="M51.8701 63.5396V65.7377C52.2342 66.5806 53.099 67.1912 54.0205 67.1912C54.6918 67.1912 55.238 66.9469 55.6817 66.4584C56.1253 65.9698 56.3529 65.3594 56.3529 64.6386C56.3529 63.9183 56.1253 63.3075 55.6817 62.8313C55.238 62.3428 54.6918 62.0985 54.0205 62.0985C53.0761 62.0985 52.2229 62.6971 51.8701 63.5396ZM56.1025 62.4893C56.6144 63.0879 56.8763 63.7961 56.8763 64.6386C56.8763 65.4813 56.6144 66.2019 56.1025 66.8004C55.5905 67.3988 54.9306 67.7042 54.1115 67.7042C53.1559 67.7042 52.4049 67.3134 51.8701 66.5193V70H51.3581V61.7322H51.8701V62.758C52.4049 61.9763 53.1443 61.5855 54.1115 61.5855C54.9306 61.5855 55.5905 61.8909 56.1025 62.4893Z" fill="#2D2D2D"/>
<path d="M59.0266 61.7321H59.5393V67.5574H59.0266V61.7321ZM58.9698 59.3385C59.3455 58.8987 59.9948 59.5949 59.5848 59.9981C59.2091 60.4376 58.5599 59.7415 58.9698 59.3385Z" fill="#2D2D2D"/>
<path d="M61.4955 67.5574V67.1787L65.2955 62.2328H61.7684V61.7321H66.0352V62.1229L62.2577 67.0567H66.2172V67.5574H61.4955Z" fill="#2D2D2D"/>
<path d="M67.4344 67.5574V67.1787L71.2344 62.2328H67.7073V61.7321H71.9742V62.1229L68.1966 67.0567H72.1561V67.5574H67.4344Z" fill="#2D2D2D"/>
<path d="M77.8791 66.0308V65.066C77.2304 64.6143 76.5706 64.3822 75.8879 64.3822C74.7387 64.3822 74.0334 64.9438 74.0334 65.7867C74.0334 66.727 74.7844 67.191 75.74 67.191C76.6502 67.191 77.4352 66.6658 77.8791 66.0308ZM74.113 67.2032C73.7034 66.8613 73.4986 66.3971 73.4986 65.7988C73.4986 65.2247 73.7148 64.7606 74.1358 64.4188C74.5682 64.0647 75.1028 63.8936 75.7513 63.8936C76.5137 63.8936 77.2304 64.1013 77.8791 64.5285V63.7593C77.8791 62.6357 77.1735 62.0983 75.9448 62.0983C75.2964 62.0983 74.6818 62.306 74.1017 62.7211V62.1595C74.6478 61.7808 75.2964 61.5855 76.0358 61.5855C77.4467 61.5855 78.391 62.2938 78.391 63.7105V66.2995C78.391 66.8004 78.6185 67.1299 78.9826 67.1299C79.1076 67.1299 79.2102 67.1054 79.3013 67.0566V67.5086C79.1988 67.5695 79.0509 67.6061 78.8575 67.6061C78.3682 67.6061 77.97 67.2641 77.9245 66.5924C77.333 67.3375 76.5592 67.7039 75.5921 67.7039C75.0231 67.7039 74.534 67.533 74.113 67.2032Z" fill="#2D2D2D"/>
<path d="M89.063 66.2141L85.8887 62.9289C85.5133 63.0511 85.1947 63.2952 84.9102 63.6615C84.6257 64.028 84.4894 64.4676 84.4894 64.9926C84.4894 65.6521 84.7168 66.1896 85.1605 66.5924C85.6043 66.9957 86.1619 67.191 86.833 67.191C87.7319 67.191 88.4715 66.8613 89.063 66.2141ZM89.0176 60.1688C88.4487 59.6437 87.8229 59.3751 87.1516 59.3751C86.1163 59.3751 85.4562 59.9489 85.4562 60.877C85.4562 61.4633 85.7636 62.0739 86.3894 62.7211L89.3816 65.7988C89.8708 65.0537 90.1326 64.1377 90.1667 63.0265H90.6787C90.6446 64.26 90.326 65.3101 89.7345 66.1775L91.0883 67.5573H90.3715L89.4159 66.5804C88.7444 67.3254 87.8798 67.7039 86.833 67.7039C86.0708 67.7039 85.3995 67.4598 84.8192 66.9832C84.2503 66.495 83.9658 65.8353 83.9658 64.9926C83.9658 64.3577 84.1365 63.8327 84.4666 63.4051C84.7964 62.9777 85.1605 62.6846 85.5588 62.5258C85.1376 62.0006 84.933 61.4511 84.933 60.865C84.933 60.2664 85.1376 59.7779 85.5474 59.4117C85.957 59.0452 86.4689 58.8621 87.0721 58.8621C87.8343 58.8621 88.4828 59.094 89.0176 59.5459V60.1688Z" fill="#2D2D2D"/>
<path d="M96.6404 63.5396V65.7377C97.0044 66.5806 97.8693 67.1912 98.7908 67.1912C99.4621 67.1912 100.008 66.9469 100.452 66.4584C100.896 65.9698 101.123 65.3594 101.123 64.6386C101.123 63.9183 100.896 63.3075 100.452 62.8313C100.008 62.3428 99.4621 62.0985 98.7908 62.0985C97.8464 62.0985 96.9932 62.6971 96.6404 63.5396ZM100.873 62.4893C101.385 63.0879 101.647 63.7961 101.647 64.6386C101.647 65.4813 101.385 66.2019 100.873 66.8004C100.361 67.3988 99.7009 67.7042 98.8818 67.7042C97.9262 67.7042 97.1752 67.3134 96.6404 66.5193V70H96.1284V61.7322H96.6404V62.758C97.1752 61.9763 97.9146 61.5855 98.8818 61.5855C99.7009 61.5855 100.361 61.8909 100.873 62.4893Z" fill="#2D2D2D"/>
<path d="M107.552 66.0308V65.066C106.903 64.6143 106.243 64.3822 105.561 64.3822C104.411 64.3822 103.706 64.9438 103.706 65.7867C103.706 66.727 104.457 67.191 105.413 67.191C106.323 67.191 107.108 66.6658 107.552 66.0308ZM103.786 67.2032C103.376 66.8613 103.171 66.3971 103.171 65.7988C103.171 65.2247 103.387 64.7606 103.808 64.4188C104.241 64.0647 104.775 63.8936 105.424 63.8936C106.186 63.8936 106.903 64.1013 107.552 64.5285V63.7593C107.552 62.6357 106.846 62.0983 105.617 62.0983C104.969 62.0983 104.354 62.306 103.774 62.7211V62.1595C104.32 61.7808 104.969 61.5855 105.708 61.5855C107.119 61.5855 108.064 62.2938 108.064 63.7105V66.2995C108.064 66.8004 108.291 67.1299 108.655 67.1299C108.78 67.1299 108.883 67.1054 108.974 67.0566V67.5086C108.871 67.5695 108.723 67.6061 108.53 67.6061C108.041 67.6061 107.643 67.2641 107.597 66.5924C107.006 67.3375 106.232 67.7039 105.265 67.7039C104.696 67.7039 104.207 67.533 103.786 67.2032Z" fill="#2D2D2D"/>
<path d="M110.191 67.0814V66.4828C110.84 66.9592 111.591 67.1913 112.421 67.1913C113.479 67.1913 114.162 66.7394 114.162 66.0432C114.162 65.7012 113.991 65.4571 113.661 65.274C113.331 65.0908 113.035 65.0174 112.535 64.8708L112.307 64.8099C111.841 64.6755 111.568 64.6021 111.192 64.4191C110.703 64.1504 110.362 63.7962 110.362 63.1613C110.362 62.1964 111.124 61.5856 112.455 61.5856C113.252 61.5856 113.9 61.7689 114.412 62.1231V62.6847C113.809 62.2939 113.172 62.0986 112.489 62.0986C111.431 62.0986 110.885 62.526 110.885 63.1613C110.885 63.4542 111.044 63.6984 111.215 63.845C111.295 63.9061 111.431 63.9793 111.602 64.0526C111.955 64.1991 112.08 64.2358 112.535 64.3457L113.172 64.5167C113.308 64.5533 113.491 64.6266 113.73 64.7245C113.968 64.822 114.139 64.9196 114.242 65.0295C114.469 65.2373 114.685 65.6036 114.685 66.0556C114.685 66.5562 114.469 66.9592 114.037 67.2644C113.616 67.5576 113.081 67.7043 112.432 67.7043C111.522 67.7043 110.635 67.4234 110.191 67.0814Z" fill="#2D2D2D"/>
<path d="M117.302 66.0308V62.2327H115.914V61.732H117.302V59.8513H117.814V61.732H119.839V62.2327H117.814V65.8842C117.814 66.8245 118.121 67.191 118.838 67.191C119.157 67.191 119.464 67.1054 119.759 66.9223V67.4353C119.521 67.6185 119.179 67.7039 118.713 67.7039C117.768 67.7039 117.302 67.069 117.302 66.0308Z" fill="#2D2D2D"/>
<path d="M125.676 66.0308V65.066C125.028 64.6143 124.368 64.3822 123.685 64.3822C122.536 64.3822 121.831 64.9438 121.831 65.7867C121.831 66.727 122.582 67.191 123.537 67.191C124.447 67.191 125.232 66.6658 125.676 66.0308ZM121.91 67.2032C121.501 66.8613 121.296 66.3971 121.296 65.7988C121.296 65.2247 121.512 64.7606 121.933 64.4188C122.365 64.0647 122.9 63.8936 123.548 63.8936C124.311 63.8936 125.028 64.1013 125.676 64.5285V63.7593C125.676 62.6357 124.971 62.0983 123.742 62.0983C123.093 62.0983 122.479 62.306 121.899 62.7211V62.1595C122.445 61.7808 123.093 61.5855 123.833 61.5855C125.244 61.5855 126.188 62.2938 126.188 63.7105V66.2995C126.188 66.8004 126.416 67.1299 126.78 67.1299C126.905 67.1299 127.007 67.1054 127.098 67.0566V67.5086C126.996 67.5695 126.848 67.6061 126.654 67.6061C126.165 67.6061 125.767 67.2641 125.722 66.5924C125.13 67.3375 124.356 67.7039 123.389 67.7039C122.82 67.7039 122.331 67.533 121.91 67.2032Z" fill="#2D2D2D"/>
<path d="M136.519 66.4705C136.963 65.982 137.19 65.3714 137.19 64.6508C137.19 63.9303 136.963 63.3197 136.519 62.8311C136.075 62.3428 135.529 62.0983 134.858 62.0983C133.936 62.0983 133.072 62.7091 132.707 63.5518V65.7499C133.06 66.5926 133.914 67.1912 134.858 67.1912C135.529 67.1912 136.075 66.9467 136.519 66.4705ZM132.707 66.5315V67.5575H132.195V59.0086H132.707V62.7702C133.242 61.9763 133.993 61.5855 134.949 61.5855C135.768 61.5855 136.428 61.8907 136.94 62.4891C137.452 63.0876 137.714 63.8082 137.714 64.6508C137.714 65.4935 137.452 66.2141 136.94 66.8124C136.428 67.4108 135.768 67.7039 134.949 67.7039C133.982 67.7039 133.242 67.3131 132.707 66.5315Z" fill="#2D2D2D"/>
<path d="M143.619 66.0308V65.066C142.97 64.6143 142.31 64.3822 141.627 64.3822C140.478 64.3822 139.773 64.9438 139.773 65.7867C139.773 66.727 140.524 67.191 141.479 67.191C142.39 67.191 143.175 66.6658 143.619 66.0308ZM139.852 67.2032C139.443 66.8613 139.238 66.3971 139.238 65.7988C139.238 65.2247 139.454 64.7606 139.875 64.4188C140.307 64.0647 140.842 63.8936 141.491 63.8936C142.253 63.8936 142.97 64.1013 143.619 64.5285V63.7593C143.619 62.6357 142.913 62.0983 141.684 62.0983C141.036 62.0983 140.421 62.306 139.841 62.7211V62.1595C140.387 61.7808 141.036 61.5855 141.775 61.5855C143.186 61.5855 144.13 62.2938 144.13 63.7105V66.2995C144.13 66.8004 144.358 67.1299 144.722 67.1299C144.847 67.1299 144.95 67.1054 145.04 67.0566V67.5086C144.938 67.5695 144.79 67.6061 144.597 67.6061C144.108 67.6061 143.709 67.2641 143.664 66.5924C143.072 67.3375 142.299 67.7039 141.331 67.7039C140.763 67.7039 140.273 67.533 139.852 67.2032Z" fill="#2D2D2D"/>
<path d="M146.747 67.5574V61.7321H147.259V62.9532C147.658 62.2083 148.499 61.5979 149.455 61.5855V62.1474C148.943 62.1474 148.488 62.3062 148.101 62.6236C147.714 62.929 147.43 63.2953 147.259 63.6982V67.5574H146.747Z" fill="#2D2D2D"/>
<path d="M18.6333 41.5759C17.9802 41.751 17.3273 41.8826 16.7147 42.0136C16.5516 42.0577 16.4701 42.1015 16.429 42.2329V42.4082C16.6334 43.153 16.674 43.9416 16.7147 44.8616C17.4086 43.7222 18.0618 42.7147 18.6741 41.7069C18.6333 41.6633 18.6333 41.6196 18.6333 41.5759ZM28.143 20.0652C25.7758 20.3716 23.327 20.7222 20.8779 21.2478C17.1229 21.9926 13.368 22.9126 9.69467 24.3147C7.77658 25.0154 5.89906 25.8481 4.10321 26.987C3.49078 27.3815 2.83795 27.8193 2.34794 28.3452C2.02144 28.652 1.85827 28.9585 1.81753 29.2652C1.73568 29.572 1.81753 29.8787 2.06218 30.229C2.10328 30.3605 2.2257 30.4478 2.30719 30.5794C2.67462 30.9297 3.04186 31.2364 3.49078 31.5431C4.79679 32.3317 6.10297 32.9891 7.45008 33.6898C8.95999 34.3907 10.3886 35.1356 11.7355 36.0993C13.2458 37.1509 14.6333 38.3776 15.5311 40.0862C15.6537 40.305 15.7761 40.3491 15.9393 40.3491C16.0619 40.3491 16.1434 40.305 16.2658 40.305C17.3679 40.0424 18.5109 39.7794 19.6127 39.5606C19.9801 39.5165 20.184 39.3413 20.3473 39.0346C21.2455 37.6327 22.1434 36.2307 23.0004 34.873C25.9391 30.2727 28.9595 25.7602 32.1019 21.2915C32.5103 20.7222 32.9184 20.1525 33.3266 19.5392C31.5309 19.6706 29.8573 19.846 28.143 20.0652ZM25.3269 38.4213C28.143 37.8957 30.9594 37.3701 33.7348 37.0193L35.857 36.7567H36.3059C36.7552 36.8004 36.9998 37.1072 36.9591 37.589C36.8774 37.9834 36.5509 38.3776 36.102 38.509C35.6123 38.6406 35.1634 38.6841 34.7141 38.7279C32.3877 38.9909 30.1431 39.3413 27.8167 39.7794C25.6941 40.174 23.572 40.6118 21.4494 41.0061C21.0824 41.0499 20.8779 41.225 20.6329 41.5759C19.0412 44.1167 17.4905 46.6139 15.9393 49.1111C15.7761 49.4178 15.613 49.7243 15.4904 50.031C14.6333 52.2652 13.4497 54.3242 12.1844 56.3836C10.7151 58.7929 9.12333 61.115 7.40898 63.3932C7.12322 63.7872 6.7969 64.1377 6.51114 64.5321C6.34798 64.751 6.14407 64.9267 5.89906 65.0139C5.73572 65.1018 5.61331 65.1455 5.44997 65.1455C5.0418 65.1455 4.75604 64.8388 4.79679 64.357L4.83789 64.1377C4.87864 63.9188 4.96013 63.7 5.08254 63.4807C5.61331 62.5168 6.18464 61.5968 6.7969 60.6331C9.16408 56.8655 11.5314 53.0979 13.8986 49.374C14.2662 48.8043 14.3883 48.1911 14.5518 47.6214L14.674 47.052C15.0009 45.6502 15.0009 44.3356 14.674 43.0652C14.5518 42.6712 14.5109 42.5396 14.307 42.5396C14.2251 42.5396 14.062 42.5833 13.8579 42.6271C10.9601 43.2403 8.02141 43.9416 5.08254 44.6423C4.30712 44.8616 3.45004 44.993 2.63369 45.1683C2.5522 45.1683 2.42961 45.2119 2.30719 45.2119H2.2257C1.77678 45.2119 1.4501 44.8616 1.49103 44.4235V44.2919C1.61327 43.8538 1.98069 43.5033 2.42961 43.3719C3.12353 43.2403 3.85821 43.1089 4.51104 42.9777C7.16432 42.3644 9.81726 41.751 12.4294 41.1377C12.8376 41.0499 13.2047 41.0061 13.6536 40.7873C13.4497 40.3929 13.1639 40.0424 12.9189 39.7357C12.0619 38.8595 11.164 38.1146 10.1436 37.4574C8.55182 36.406 6.83765 35.5737 5.08254 34.6973C4.06212 34.1719 3.00112 33.6463 1.98069 32.945C1.4501 32.5069 0.878592 32.0691 0.470421 31.4557C0.0626008 30.7983 -0.100738 30.0538 0.0626011 29.2652C0.225764 28.6079 0.55209 27.9944 1.1236 27.3374C1.81753 26.5488 2.67462 25.9354 3.53188 25.3662C4.91938 24.4898 6.30723 23.8328 7.73583 23.2631C11.0825 21.8612 14.4294 20.8538 17.817 20.0652C20.5516 19.4518 23.2862 18.9258 26.0616 18.5318C28.2248 18.225 30.347 17.9621 32.5103 17.7869C33.1227 17.7432 33.7755 17.6553 34.3878 17.6118C34.6734 17.5677 34.8776 17.4802 35.041 17.2172C35.5712 16.5165 36.0612 15.8595 36.5916 15.2019C36.8774 14.8079 37.2041 14.4133 37.6121 14.0631C37.8976 13.8442 38.1427 13.7563 38.3877 13.7563C38.6734 13.7563 38.8773 13.8877 38.9592 14.1507C39.0816 14.326 39.0816 14.5887 39.0407 14.8516C38.9181 15.4649 38.4692 16.0784 37.9795 16.2535C37.4898 16.4286 37.3263 16.8669 36.9998 17.3051C37.1224 17.3488 37.2448 17.3488 37.3674 17.3488H37.7756C38.5916 17.2613 39.4081 17.2172 40.2241 17.1299C41.6121 17.0421 43 16.9546 44.3875 16.8669C44.9995 16.8232 45.6527 16.8232 46.3466 16.7354C47.1628 16.6479 48.0199 16.6479 48.8364 16.604L54.6729 16.3413C55.7339 16.2972 56.7954 16.3413 57.8564 16.2535C59.1218 16.166 60.346 16.166 61.5707 16.166C62.8358 16.166 64.0603 16.166 65.3254 16.2098C67.244 16.2098 69.0804 16.2972 70.9172 16.6916C71.0803 16.7354 71.2843 16.7791 71.4479 16.8669C71.7743 16.9983 71.8969 17.3488 71.8558 17.6991C71.815 17.7432 71.7743 17.8307 71.7743 17.9183C71.6111 18.3125 71.2437 18.6192 70.7946 18.6192H70.7133C70.2233 18.5755 69.7336 18.4439 69.2028 18.3566C68.2231 18.1809 67.2029 18.0937 66.1417 18.0937C64.9176 18.0499 63.6929 18.0499 62.4685 18.0499C60.7949 18.0499 59.1218 18.0499 57.4482 18.0937C55.4074 18.1374 53.4074 18.225 51.3668 18.3125C49.9793 18.4002 48.5914 18.4439 47.1628 18.5318C45.4077 18.6192 43.612 18.7069 41.816 18.8385C39.857 18.9699 37.8976 19.1452 35.9388 19.2762C35.5712 19.2762 35.3267 19.4518 35.1223 19.8022C33.6124 21.9048 32.1019 24.0079 30.6737 26.1107C27.9391 30.1852 25.2452 34.2595 22.633 38.4213C22.5515 38.5968 22.4291 38.7279 22.3473 38.9909C23.3677 38.8157 24.388 38.5968 25.3269 38.4213Z" fill="#2D2D2D"/>
<path d="M38.0958 45.5621C38.1369 45.5621 38.2184 45.5184 38.3408 45.4747C38.5859 45.387 38.749 45.2995 38.9529 45.1681C39.4429 44.8614 39.8919 44.5106 40.3002 44.1166C41.5651 43.065 42.7898 42.0134 43.9734 40.9622C44.2592 40.743 44.5855 40.4804 44.8712 40.2174C44.9531 40.1738 44.9937 40.1297 45.0344 40.0422C45.0344 39.9981 44.9937 39.9108 44.9531 39.8671C44.6262 39.5163 44.2592 39.2974 43.7691 39.2974C43.5652 39.2974 43.3611 39.3411 43.1163 39.4288C42.953 39.5163 42.708 39.5604 42.5448 39.6918C40.953 40.5241 39.7694 41.7945 38.8716 43.328C38.504 43.8977 38.259 44.4668 38.0958 44.9928L38.0143 45.2554C38.0143 45.4747 38.0143 45.5621 38.0958 45.5621ZM48.1366 44.3795C49.6467 43.1528 51.1159 41.9261 52.7076 40.8746C52.871 40.743 53.0752 40.6116 53.2791 40.5241C53.4423 40.4362 53.5649 40.4362 53.6873 40.4362C53.932 40.4362 54.1362 40.5678 54.2588 40.7871C54.3401 40.9183 54.3401 41.0938 54.2996 41.2689C54.2588 41.4878 54.1362 41.7067 53.9731 41.8824C53.8099 42.0575 53.6466 42.1889 53.4423 42.3201C52.2181 43.1528 50.9935 44.1166 49.8099 45.0803C49.0752 45.65 48.3813 46.2633 47.6058 46.8326C47.1977 47.1393 46.708 47.4023 46.218 47.5774C45.9733 47.6653 45.7691 47.7088 45.5652 47.7088C44.8712 47.7088 44.4631 47.227 44.4223 46.3948C44.4223 46.1319 44.4631 45.8689 44.5042 45.5621C44.5855 45.1681 44.7488 44.7298 44.912 44.3354C45.3609 43.328 45.9322 42.3643 46.463 41.4005C46.5856 41.1811 46.708 40.9622 46.7895 40.6992C46.6669 40.7871 46.5448 40.8746 46.4223 41.006C44.7897 42.408 43.1569 43.8098 41.5651 45.2117C40.7899 45.8251 40.0552 46.4384 39.2387 46.9204C38.8716 47.1393 38.4633 47.3144 38.0143 47.4458C37.8512 47.49 37.688 47.5337 37.5243 47.5337C36.7898 47.5337 36.2183 46.964 36.2594 46.0003C36.2183 45.7373 36.2594 45.4747 36.3409 45.1681C36.3818 44.9051 36.4633 44.5984 36.5859 44.3354C37.7693 41.4441 39.6876 39.2095 42.463 37.8518C43.0756 37.5888 43.6876 37.4137 44.2592 37.4137C44.4223 37.4137 44.5855 37.4137 44.7488 37.4572C45.1977 37.5451 45.6059 37.8077 45.9322 38.0707C46.1772 38.2899 46.3812 38.5525 46.6669 38.5525H46.708C46.9938 38.5525 47.2795 38.2021 47.5653 37.9832C48.0142 37.6326 48.3813 37.2821 48.8302 36.9754C49.0752 36.844 49.3202 36.6688 49.606 36.6251C49.6873 36.6251 49.7691 36.5814 49.8099 36.5814C50.3406 36.5814 50.667 37.0191 50.5445 37.6326C50.463 37.9832 50.2995 38.2899 50.1362 38.5967C49.5649 39.3852 49.0752 40.1738 48.5855 40.9622C47.8509 42.1889 47.0751 43.4154 46.5037 44.7298C46.463 44.8614 46.3812 45.0365 46.3406 45.2554C46.3406 45.387 46.2998 45.5184 46.2998 45.6935C46.9938 45.2995 47.5653 44.8173 48.1366 44.3795Z" fill="#2D2D2D"/>
<path d="M54.4606 41.8382C55.6442 40.5241 56.9096 39.2536 58.2156 38.0706C58.5014 37.8518 58.7871 37.5888 59.1134 37.4574C59.3584 37.3258 59.6031 37.2383 59.8074 37.2383C60.3789 37.2383 60.6645 37.7202 60.5009 38.465L60.4602 38.6841C60.3789 39.0785 60.2155 39.5162 60.0931 39.9108L59.9705 40.3489C59.93 40.787 60.0113 40.9183 60.4196 40.9624C60.7867 40.9624 61.1541 40.8745 61.5214 40.8308C62.3377 40.6556 63.1542 40.5241 64.0113 40.2611C64.1336 40.2175 64.256 40.2175 64.4191 40.2175H64.501C64.8275 40.2175 65.0317 40.4364 65.0725 40.7429C65.1131 40.8745 65.1131 40.9624 65.0725 41.0938C65.0317 41.3126 64.9092 41.5315 64.6641 41.7508C64.501 41.8824 64.3378 41.9698 64.1336 42.0134C62.7461 42.408 61.3991 42.7147 60.052 42.7582H59.93C58.7871 42.7582 57.9706 42.1012 58.1745 40.6115L58.2156 40.3927C58.0113 40.3927 57.9298 40.5241 57.848 40.6556C56.2562 42.1891 54.8276 43.8098 53.3996 45.5184C52.787 46.2632 52.1749 47.0081 51.5221 47.7525C51.3584 47.972 51.1545 48.2344 50.9094 48.4538C50.6237 48.7164 50.3381 48.8478 50.0524 48.8478C49.9301 48.8478 49.8077 48.8041 49.6853 48.7604C49.3995 48.5411 49.2769 48.1908 49.3588 47.7525L49.3995 47.6211C49.5219 47.2271 49.6853 46.8767 49.8892 46.4821C50.9913 44.1603 52.2567 41.8382 53.6848 39.6041C54.0116 39.0344 54.3787 38.4211 54.8276 37.8955C55.0321 37.6325 55.236 37.3699 55.5623 37.1944C55.7667 37.1069 55.9707 37.0191 56.1338 37.0191C56.4605 37.0191 56.7463 37.1944 56.8685 37.545C56.9502 37.7202 56.9502 37.9392 56.9096 38.1144C56.8277 38.3774 56.6238 38.6841 56.297 38.8592C56.0523 38.9906 55.9299 39.0785 55.7668 39.2974C55.1134 40.2611 54.5013 41.2689 53.9298 42.2764C53.9298 42.2764 53.9706 42.3201 53.9298 42.408C54.1748 42.1891 54.3382 42.0134 54.4606 41.8382Z" fill="#2D2D2D"/>
<path d="M68.2135 35.2668L68.2543 35.0917C68.3359 34.6534 68.7439 34.2593 69.2339 34.0842C69.3564 34.0401 69.4789 33.9964 69.601 33.9964C69.9279 33.9964 70.1725 34.2152 70.2949 34.522C70.3768 34.6534 70.3768 34.8287 70.3357 34.9601C70.2949 35.1793 70.1725 35.3547 70.0503 35.5298C69.7234 35.8365 69.3153 36.0117 68.9889 36.0554C68.4585 36.0554 68.1728 35.7049 68.2135 35.2668ZM62.336 45.4747C62.3771 45.2117 62.4178 44.9928 62.4585 44.7298C62.581 44.1166 62.826 43.5468 63.0706 42.9334C63.8053 41.2248 64.785 39.6041 65.9278 38.0707C66.2136 37.7202 66.4992 37.4135 66.8257 37.1505C67.1114 36.9316 67.397 36.844 67.642 36.844C67.8459 36.844 68.0503 36.9316 68.2135 37.107C68.4174 37.3258 68.4993 37.6326 68.4174 37.8954C68.3359 38.2899 68.0503 38.6404 67.6827 38.7718C67.397 38.8155 67.2338 38.9907 67.0707 39.2095C65.9686 40.6992 65.03 42.2327 64.3766 43.9412C64.3361 44.1601 64.2546 44.3795 64.2135 44.5547C64.1727 44.7736 64.132 44.9928 64.132 45.2117C64.0503 45.65 64.1727 45.7814 64.5811 45.8251H64.7442C65.1113 45.8251 65.4789 45.65 65.8463 45.4747C66.7442 45.0365 67.5603 44.4668 68.3359 43.8536C69.6829 42.8461 70.9889 41.8383 72.3356 40.8308C72.5399 40.6992 72.744 40.5241 72.9888 40.3927C73.1521 40.3048 73.3153 40.2611 73.4379 40.2611C73.6829 40.2611 73.8868 40.3927 74.0092 40.6116C74.0907 40.743 74.1318 40.9622 74.0907 41.1811C74.0092 41.3564 73.9274 41.5757 73.7642 41.7508C73.6418 41.8824 73.5192 41.9697 73.356 42.1013C71.6417 43.3717 69.9279 44.6861 68.2135 45.9565C67.4788 46.4821 66.7849 46.9202 65.9686 47.3144C65.3971 47.5337 64.8666 47.7088 64.0911 47.7088C62.9075 47.7088 62.2546 46.9202 62.336 45.4747Z" fill="#2D2D2D"/>
<path d="M73.7221 43.8537C75.9261 41.7509 78.2118 39.7793 80.7422 38.1145C81.5585 37.5889 82.4161 37.1071 83.3139 36.7566C83.7629 36.5815 84.2522 36.4936 84.7018 36.4936C85.5174 36.5373 85.9261 37.1071 85.8439 38.027C85.7222 38.5526 85.4772 39.0345 85.2733 39.5164C84.8235 40.4805 84.3344 41.4006 83.9257 42.3643C83.8444 42.5832 83.7629 42.8021 83.7218 43.0213L83.6814 43.3281C83.6405 43.6785 83.7218 43.8099 84.0483 43.8099C84.4157 43.8099 84.7833 43.7221 85.1507 43.5911C86.0486 43.3281 86.9464 42.8899 87.8033 42.5395C89.1501 41.97 90.4564 41.4006 91.7622 40.8309C91.9258 40.7431 92.0886 40.7431 92.2112 40.7431C92.5382 40.7431 92.7423 40.8747 92.8647 41.1814C92.9051 41.3128 92.9051 41.4444 92.8647 41.6195C92.8236 41.9262 92.5382 42.2765 92.1708 42.4518C91.6808 42.7148 91.1907 42.9337 90.6605 43.1529L86.334 44.9929C85.5585 45.2996 84.8235 45.5185 84.0894 45.6501C83.9668 45.6501 83.8033 45.6938 83.6405 45.6938C82.0482 45.6938 81.6811 44.3796 81.9668 43.1529C82.0893 42.4081 82.4161 41.6632 82.7424 40.9625L83.5994 39.2537C83.6814 39.0786 83.8033 38.9031 83.8444 38.7278L83.8855 38.6405C83.8855 38.5089 83.8855 38.4212 83.7629 38.4212C83.7218 38.4212 83.6814 38.4652 83.6405 38.4652C83.3543 38.5526 83.0278 38.6842 82.7424 38.8594C81.5992 39.4726 80.4975 40.2612 79.4361 41.0498C77.2729 42.627 75.3546 44.4234 73.4771 46.2633C72.7424 46.9643 72.0485 47.6654 71.2732 48.3224C70.9875 48.5412 70.7017 48.7605 70.3752 48.848C70.2121 48.8921 70.0897 48.9358 69.9671 48.9358C69.6 48.9358 69.3142 48.6728 69.2324 48.2786C69.1916 48.0156 69.1916 47.7527 69.2731 47.5338C69.2731 47.3587 69.3142 47.2273 69.3957 47.0957C69.7632 46.0882 70.2528 45.1241 70.7836 44.1604C72.0896 41.7509 73.4771 39.4291 75.1507 37.2385C75.3546 36.9319 75.5589 36.6689 75.8035 36.4501C76.0893 36.1871 76.375 36.0555 76.62 36.0555C76.7425 36.0555 76.8651 36.0992 76.9871 36.1433C77.4364 36.3185 77.5996 36.6689 77.5586 37.1945V37.3259C77.4771 37.6327 77.1506 37.9833 76.7832 38.1145C76.4567 38.2024 76.171 38.4652 76.0078 38.7719C74.4975 40.8747 73.1506 43.0651 71.9672 45.3434L71.9264 45.5185C72.5385 44.9929 73.11 44.4234 73.7221 43.8537Z" fill="#2D2D2D"/>
<path d="M97.1472 37.6327C96.1268 37.9395 95.3515 38.6843 94.6576 39.5606C95.6376 39.1662 96.4944 38.5968 97.1472 37.6327ZM93.0254 45.2558C93.1472 45.2558 93.3107 45.2558 93.5148 45.1683C94.2087 44.9053 94.9026 44.4235 95.515 43.9416C96.7394 42.9779 98.045 42.0138 99.2701 41.094C99.6779 40.831 100.004 40.568 100.372 40.3491C100.576 40.2177 100.78 40.1299 100.984 40.1299C101.106 40.1299 101.27 40.174 101.392 40.305C101.596 40.4807 101.637 40.7433 101.596 41.0063C101.555 41.1815 101.474 41.3566 101.311 41.5317C101.188 41.7071 101.025 41.8385 100.902 41.9263C99.229 43.1089 97.5961 44.4235 95.9229 45.6502C95.3515 46.0883 94.7389 46.4825 94.0457 46.789C93.5968 47.0085 93.1068 47.1395 92.6578 47.1395C92.4539 47.1395 92.2493 47.0958 92.0454 47.052C90.9846 46.789 90.5761 46.0006 90.535 44.8175C90.535 44.4672 90.5761 44.073 90.6576 43.7224C90.78 43.2405 90.9026 42.7586 91.1065 42.2766C91.9639 40.1299 93.3107 38.3339 95.1476 36.8442C95.8415 36.2748 96.5757 35.8804 97.4333 35.7053C97.5961 35.6616 97.7596 35.6616 97.8822 35.6616C98.8212 35.6616 99.2701 36.3186 99.0655 37.326C99.0251 37.5013 98.9429 37.6769 98.8616 37.8957C98.6986 38.2901 98.4536 38.6406 98.2087 38.9473C97.2294 40.0862 96.1268 40.8747 94.8211 41.4007C94.4537 41.5317 94.0861 41.6196 93.7598 41.6196H93.4333C93.2294 41.6196 93.1472 41.7512 93.0254 41.9263C92.8208 42.4082 92.6168 42.89 92.4943 43.3719L92.3315 44.2483C92.2493 44.9053 92.5354 45.2558 93.0254 45.2558Z" fill="#2D2D2D"/>
<path d="M105.84 35.1353C106.003 35.0916 106.207 35.0039 106.37 34.9602C108.411 34.1716 110.452 33.12 112.452 31.9374C116.656 29.3524 120.574 26.1983 124.329 22.781C127.635 19.7143 130.737 16.3411 133.472 12.7486C134.941 10.7771 136.329 8.76175 137.431 6.57132C137.88 5.739 138.206 4.86276 138.41 3.98633C138.451 3.76745 138.491 3.54821 138.491 3.32933C138.614 2.4529 138.247 1.92748 137.431 1.88375H137.145C136.941 1.88375 136.696 1.88374 136.492 1.92748C135.512 2.14673 134.615 2.54075 133.717 3.02261C131.961 3.94278 130.411 5.16949 128.859 6.43993C125.88 8.93708 123.186 11.7408 120.656 14.6762C115.39 20.6343 110.778 27.0745 106.493 33.7335C106.248 34.1716 106.003 34.6097 105.676 35.0916C105.758 35.1353 105.799 35.1353 105.84 35.1353ZM138.002 8.89334C136.043 12.1791 133.676 15.1581 131.145 18.0496C128.574 20.9845 125.839 23.7011 122.901 26.1983C119.757 28.9143 116.411 31.4556 112.901 33.5581C110.289 35.1353 107.595 36.4058 104.778 37.282C104.329 37.4573 104.003 37.6766 103.758 38.1584C102.289 40.6115 100.86 43.0649 99.554 45.6058C98.6158 47.3585 97.8807 49.1545 97.3094 50.9947C97.2279 51.2576 97.1464 51.5203 97.1053 51.7832C97.024 52.1335 96.9829 52.5281 96.9829 52.8784C97.024 53.4481 97.1868 53.7111 97.5953 53.7111C97.7172 53.7111 97.8807 53.6669 98.0443 53.6232C98.6158 53.4481 99.1873 53.1414 99.7175 52.8346C101.268 51.8709 102.738 50.7758 104.166 49.6805C106.493 47.8841 108.737 46.0004 111.145 44.4232C113.39 42.9335 115.676 41.7068 118.003 40.6993C118.248 40.6115 118.452 40.5242 118.655 40.5242C119.023 40.5242 119.268 40.6993 119.349 41.0496C119.349 41.1812 119.349 41.269 119.308 41.4004C119.268 41.663 119.104 41.926 118.859 42.1012C118.655 42.2328 118.493 42.32 118.248 42.4079C115.349 43.7221 112.492 45.2994 109.84 47.3143L105.432 50.7317C103.595 52.1776 101.758 53.5795 99.799 54.6748C99.1051 55.0688 98.3708 55.3755 97.6357 55.5071C97.4729 55.5508 97.3094 55.5508 97.1464 55.5508C96.289 55.5508 95.5951 55.0688 95.35 54.1929C95.1461 53.4481 95.1872 52.6595 95.35 51.8709L95.4322 51.5642C96.044 49.1545 97.0644 46.8766 98.2482 44.6421C99.3501 42.4957 100.574 40.3926 101.799 38.2898C101.962 38.0706 102.044 37.8517 102.085 37.6766C102.126 37.5887 102.126 37.5011 102.126 37.4136V37.1943C102.207 36.8439 102.452 36.5372 102.738 36.362C103.105 36.1431 103.309 35.8364 103.513 35.4862C106.289 31.0173 109.186 26.7239 112.329 22.4744C115.104 18.7068 118.125 15.0265 121.309 11.5656C123.268 9.41894 125.349 7.31617 127.553 5.43247C129.472 3.81119 131.431 2.32187 133.594 1.22656C134.818 0.569189 136.043 0.0873305 137.308 -0.000143344H137.635C139.349 -0.000143344 140.532 1.00732 140.247 3.32933L140.124 3.98633C139.757 5.69508 138.941 7.31617 138.002 8.89334Z" fill="#2D2D2D"/>
<path d="M123.551 35.1353C123.714 35.0916 123.918 35.0039 124.081 34.9602C126.122 34.1716 128.162 33.12 130.163 31.9374C134.367 29.3524 138.285 26.1983 142.04 22.781C145.346 19.7143 148.448 16.3411 151.183 12.7486C152.652 10.7771 154.04 8.76175 155.141 6.57132C155.59 5.739 155.917 4.86276 156.121 3.98633C156.162 3.76745 156.202 3.54821 156.202 3.32933C156.325 2.4529 155.958 1.92748 155.141 1.88375H154.855C154.651 1.88375 154.406 1.88374 154.203 1.92748C153.223 2.14673 152.325 2.54075 151.428 3.02261C149.672 3.94278 148.121 5.16949 146.57 6.43993C143.591 8.93708 140.897 11.7408 138.367 14.6762C133.101 20.6343 128.489 27.0745 124.203 33.7335C123.958 34.1716 123.714 34.6097 123.387 35.0916C123.469 35.1353 123.509 35.1353 123.551 35.1353ZM155.713 8.89334C153.754 12.1791 151.386 15.1581 148.856 18.0496C146.285 20.9845 143.55 23.7011 140.611 26.1983C137.468 28.9143 134.122 31.4556 130.612 33.5581C127.999 35.1353 125.306 36.4058 122.489 37.282C122.04 37.4573 121.714 37.6766 121.469 38.1584C119.999 40.6115 118.571 43.0649 117.265 45.6058C116.327 47.3585 115.592 49.1545 115.02 50.9947C114.939 51.2576 114.857 51.5203 114.816 51.7832C114.735 52.1335 114.694 52.5281 114.694 52.8784C114.735 53.4481 114.898 53.7111 115.306 53.7111C115.428 53.7111 115.592 53.6669 115.755 53.6232C116.327 53.4481 116.898 53.1414 117.428 52.8346C118.979 51.8709 120.448 50.7758 121.877 49.6805C124.203 47.8841 126.448 46.0004 128.856 44.4232C131.101 42.9335 133.387 41.7068 135.713 40.6993C135.958 40.6115 136.162 40.5242 136.366 40.5242C136.734 40.5242 136.979 40.6993 137.06 41.0496C137.06 41.1812 137.06 41.269 137.019 41.4004C136.979 41.663 136.815 41.926 136.57 42.1012C136.366 42.2328 136.203 42.32 135.958 42.4079C133.06 43.7221 130.203 45.2994 127.551 47.3143L123.143 50.7317C121.306 52.1776 119.469 53.5795 117.51 54.6748C116.816 55.0688 116.082 55.3755 115.347 55.5071C115.184 55.5508 115.02 55.5508 114.857 55.5508C114 55.5508 113.306 55.0688 113.061 54.1929C112.857 53.4481 112.898 52.6595 113.061 51.8709L113.143 51.5642C113.755 49.1545 114.775 46.8766 115.959 44.6421C117.061 42.4957 118.285 40.3926 119.51 38.2898C119.673 38.0706 119.754 37.8517 119.795 37.6766C119.837 37.5887 119.837 37.5011 119.837 37.4136V37.1943C119.918 36.8439 120.163 36.5372 120.448 36.362C120.816 36.1431 121.02 35.8364 121.224 35.4862C123.999 31.0173 126.897 26.7239 130.04 22.4744C132.815 18.7068 135.836 15.0265 139.02 11.5656C140.979 9.41894 143.06 7.31617 145.264 5.43247C147.182 3.81119 149.142 2.32187 151.305 1.22656C152.529 0.569189 153.754 0.0873305 155.019 -0.000143344H155.345C157.06 -0.000143344 158.243 1.00732 157.958 3.32933L157.835 3.98633C157.468 5.69508 156.652 7.31617 155.713 8.89334Z" fill="#2D2D2D"/>
<path d="M135.017 45.5621C135.058 45.5621 135.139 45.5184 135.262 45.4747C135.507 45.387 135.669 45.2995 135.873 45.1681C136.363 44.8614 136.812 44.5106 137.221 44.1166C138.486 43.065 139.711 42.0134 140.894 40.9622C141.18 40.743 141.506 40.4804 141.792 40.2174C141.874 40.1738 141.914 40.1297 141.955 40.0422C141.955 39.9981 141.914 39.9108 141.874 39.8671C141.547 39.5163 141.18 39.2974 140.69 39.2974C140.486 39.2974 140.282 39.3411 140.037 39.4288C139.873 39.5163 139.628 39.5604 139.466 39.6918C137.874 40.5241 136.69 41.7945 135.792 43.328C135.424 43.8977 135.18 44.4668 135.017 44.9928L134.935 45.2554C134.935 45.4747 134.935 45.5621 135.017 45.5621ZM145.057 44.3795C146.567 43.1528 148.036 41.9261 149.628 40.8746C149.792 40.743 149.996 40.6116 150.2 40.5241C150.363 40.4362 150.486 40.4362 150.608 40.4362C150.853 40.4362 151.057 40.5678 151.18 40.7871C151.261 40.9183 151.261 41.0938 151.22 41.2689C151.18 41.4878 151.057 41.7067 150.894 41.8824C150.731 42.0575 150.567 42.1889 150.363 42.3201C149.139 43.1528 147.914 44.1166 146.731 45.0803C145.996 45.65 145.302 46.2633 144.526 46.8326C144.118 47.1393 143.628 47.4023 143.138 47.5774C142.894 47.6653 142.69 47.7088 142.486 47.7088C141.792 47.7088 141.384 47.227 141.343 46.3948C141.343 46.1319 141.384 45.8689 141.425 45.5621C141.506 45.1681 141.669 44.7298 141.833 44.3354C142.282 43.328 142.853 42.3643 143.383 41.4005C143.506 41.1811 143.628 40.9622 143.71 40.6992C143.587 40.7871 143.466 40.8746 143.343 41.006C141.71 42.408 140.077 43.8098 138.486 45.2117C137.71 45.8251 136.976 46.4384 136.16 46.9204C135.792 47.1393 135.384 47.3144 134.935 47.4458C134.772 47.49 134.609 47.5337 134.445 47.5337C133.71 47.5337 133.139 46.964 133.18 46.0003C133.139 45.7373 133.18 45.4747 133.261 45.1681C133.302 44.9051 133.384 44.5984 133.506 44.3354C134.69 41.4441 136.608 39.2095 139.383 37.8518C139.996 37.5888 140.608 37.4137 141.18 37.4137C141.343 37.4137 141.506 37.4137 141.669 37.4572C142.118 37.5451 142.527 37.8077 142.853 38.0707C143.098 38.2899 143.302 38.5525 143.587 38.5525H143.628C143.915 38.5525 144.2 38.2021 144.486 37.9832C144.935 37.6326 145.302 37.2821 145.751 36.9754C145.996 36.844 146.241 36.6688 146.527 36.6251C146.608 36.6251 146.69 36.5814 146.731 36.5814C147.261 36.5814 147.587 37.0191 147.465 37.6326C147.384 37.9832 147.22 38.2899 147.057 38.5967C146.486 39.3852 145.996 40.1738 145.506 40.9622C144.771 42.1889 143.996 43.4154 143.425 44.7298C143.383 44.8614 143.302 45.0365 143.261 45.2554C143.261 45.387 143.221 45.5184 143.221 45.6935C143.915 45.2995 144.486 44.8173 145.057 44.3795Z" fill="#2D2D2D"/>
</svg>
