<svg width="20" height="20" viewBox="0 0 20 20" fill="none" xmlns="http://www.w3.org/2000/svg">
<g clip-path="url(#clip0_220_6317)">
<path d="M14.4998 18.3333C11.0976 18.3289 7.83593 16.9754 5.43017 14.5696C3.02441 12.1638 1.67091 8.90219 1.6665 5.49993C1.6665 4.48327 2.07037 3.50825 2.78926 2.78936C3.50815 2.07047 4.48317 1.6666 5.49984 1.6666C5.71512 1.66496 5.93004 1.6845 6.1415 1.72493C6.34593 1.75518 6.54689 1.80542 6.7415 1.87493C6.87838 1.92296 7.00035 2.00588 7.09535 2.11549C7.19035 2.22511 7.25509 2.35762 7.28317 2.49993L8.42484 7.49993C8.45561 7.63565 8.4519 7.77692 8.41406 7.91084C8.37621 8.04475 8.30543 8.16706 8.20817 8.2666C8.09984 8.38327 8.0915 8.3916 7.0665 8.92493C7.88733 10.7256 9.3275 12.1717 11.1248 12.9999C11.6665 11.9666 11.6748 11.9583 11.7915 11.8499C11.891 11.7527 12.0133 11.6819 12.1473 11.644C12.2812 11.6062 12.4225 11.6025 12.5582 11.6333L17.5582 12.7749C17.6959 12.8069 17.8233 12.8734 17.9282 12.9681C18.0332 13.0629 18.1123 13.1828 18.1582 13.3166C18.2285 13.5144 18.2815 13.7179 18.3165 13.9249C18.35 14.1344 18.3668 14.3462 18.3665 14.5583C18.3511 15.5706 17.9359 16.5357 17.2115 17.243C16.487 17.9502 15.5122 18.3422 14.4998 18.3333ZM5.49984 3.33327C4.92588 3.33546 4.37605 3.56444 3.9702 3.97029C3.56434 4.37615 3.33537 4.92597 3.33317 5.49993C3.33538 8.46084 4.51257 11.2998 6.60625 13.3935C8.69993 15.4872 11.5389 16.6644 14.4998 16.6666C15.0738 16.6644 15.6236 16.4354 16.0295 16.0296C16.4353 15.6237 16.6643 15.0739 16.6665 14.4999V14.2249L12.7998 13.3333L12.5582 13.7916C12.1832 14.5166 11.9082 15.0416 11.2082 14.7583C9.82724 14.264 8.57375 13.4683 7.53878 12.429C6.50381 11.3897 5.71336 10.1329 5.22484 8.74993C4.92484 8.09993 5.4915 7.79993 6.20817 7.42493L6.6665 7.19993L5.77484 3.33327H5.49984Z" fill="#DBDBDB"/>
</g>
<defs>
<clipPath id="clip0_220_6317">
<rect width="20" height="20" fill="white"/>
</clipPath>
</defs>
</svg>
