<svg width="40" height="40" viewBox="0 0 40 40" fill="none" xmlns="http://www.w3.org/2000/svg">
<circle cx="20" cy="20" r="19.5" stroke="#DBDBDB"/>
<path fill-rule="evenodd" clip-rule="evenodd" d="M10.3746 18.7498C15.7435 16.2095 19.3234 14.5346 21.1142 13.7252C26.229 11.4162 27.2972 11.0152 27.9843 11.0002C28.239 10.9949 28.4889 11.0764 28.6987 11.2334C28.846 11.3713 28.9398 11.5645 28.9615 11.7743C28.9985 12.0352 29.0089 12.2998 28.9924 12.5632C28.7159 15.7339 27.5154 23.3977 26.9057 26.9395C26.648 28.4316 26.1396 28.9408 25.6467 28.9912C24.5784 29.0975 23.7574 28.2227 22.7269 27.486C21.1056 26.3315 20.1902 25.6209 18.6169 24.4869C16.7981 23.1813 17.978 22.4707 19.0137 21.3032C19.285 20.9973 23.9945 16.3419 24.0872 15.9204C24.0994 15.8582 24.098 15.7937 24.0831 15.7321C24.0682 15.6706 24.0402 15.6137 24.0013 15.5661C23.945 15.5278 23.8811 15.5043 23.815 15.4975C23.7488 15.4907 23.682 15.5008 23.62 15.5269C23.4586 15.5654 20.8697 17.4237 15.8535 21.1017C15.1184 21.6501 14.4525 21.9174 13.856 21.9037C13.1982 21.8869 11.9341 21.499 10.9929 21.1577C9.84044 20.7511 8.93188 20.5366 9.00402 19.8521C9.04638 19.494 9.50324 19.1266 10.3746 18.7498Z" fill="#DBDBDB"/>
</svg>
