<svg width="37" height="34" viewBox="0 0 37 34" fill="none" xmlns="http://www.w3.org/2000/svg">
<path d="M19.9395 34L20.713 34C29.7081 34 37 26.6968 37 17.6879L37 0.448887C37 0.201073 36.7994 3.03343e-05 36.552 3.03369e-05L35.7067 3.03458e-05C26.7537 3.04407e-05 19.4958 7.26904 19.4958 16.2359L19.4958 33.5557C19.4958 33.8011 19.6944 34 19.9395 34Z" fill="#E4CBA0"/>
<path d="M17.0605 34L16.287 34C7.29193 34 -4.97178e-08 26.6968 -1.11048e-07 17.6879L-2.28406e-07 0.448887C-2.30093e-07 0.201073 0.200566 3.05162e-05 0.447997 3.05145e-05L1.29326 3.05088e-05C10.2463 3.0448e-05 17.5042 7.26904 17.5042 16.2359L17.5042 33.5557C17.5042 33.8011 17.3056 34 17.0605 34Z" fill="#E4CBA0"/>
</svg>
